<mxfile host="app.diagrams.net" modified="2021-12-07T17:51:17.527Z" agent="5.0 (Windows NT 10.0; Win64; x64) AppleWebKit/537.36 (KHTML, like Gecko) Chrome/96.0.4664.45 Safari/537.36" etag="ECkIALWV9m8XkTh_y8x_" version="15.9.1" type="github">
  <diagram id="C5RBs43oDa-KdzZeNtuy" name="Page-1">
    <mxGraphModel dx="3730" dy="3316" grid="1" gridSize="10" guides="1" tooltips="1" connect="1" arrows="1" fold="1" page="1" pageScale="1" pageWidth="827" pageHeight="1169" math="0" shadow="0">
      <root>
        <mxCell id="WIyWlLk6GJQsqaUBKTNV-0" />
        <mxCell id="WIyWlLk6GJQsqaUBKTNV-1" parent="WIyWlLk6GJQsqaUBKTNV-0" />
        <mxCell id="WIyWlLk6GJQsqaUBKTNV-2" value="" style="rounded=0;html=1;jettySize=auto;orthogonalLoop=1;fontSize=11;endArrow=block;endFill=0;endSize=8;strokeWidth=1;shadow=0;labelBackgroundColor=none;edgeStyle=orthogonalEdgeStyle;" parent="WIyWlLk6GJQsqaUBKTNV-1" source="WIyWlLk6GJQsqaUBKTNV-3" target="WIyWlLk6GJQsqaUBKTNV-6" edge="1">
          <mxGeometry relative="1" as="geometry" />
        </mxCell>
        <mxCell id="WIyWlLk6GJQsqaUBKTNV-3" value="Welcome to our library!&amp;nbsp;" style="rounded=1;whiteSpace=wrap;html=1;fontSize=12;glass=0;strokeWidth=1;shadow=0;" parent="WIyWlLk6GJQsqaUBKTNV-1" vertex="1">
          <mxGeometry x="160" y="80" width="120" height="40" as="geometry" />
        </mxCell>
        <mxCell id="WIyWlLk6GJQsqaUBKTNV-4" value="Yes" style="rounded=0;html=1;jettySize=auto;orthogonalLoop=1;fontSize=11;endArrow=block;endFill=0;endSize=8;strokeWidth=1;shadow=0;labelBackgroundColor=none;edgeStyle=orthogonalEdgeStyle;" parent="WIyWlLk6GJQsqaUBKTNV-1" source="WIyWlLk6GJQsqaUBKTNV-6" target="WIyWlLk6GJQsqaUBKTNV-10" edge="1">
          <mxGeometry y="20" relative="1" as="geometry">
            <mxPoint as="offset" />
          </mxGeometry>
        </mxCell>
        <mxCell id="WIyWlLk6GJQsqaUBKTNV-5" value="No" style="edgeStyle=orthogonalEdgeStyle;rounded=0;html=1;jettySize=auto;orthogonalLoop=1;fontSize=11;endArrow=block;endFill=0;endSize=8;strokeWidth=1;shadow=0;labelBackgroundColor=none;" parent="WIyWlLk6GJQsqaUBKTNV-1" source="WIyWlLk6GJQsqaUBKTNV-6" target="WIyWlLk6GJQsqaUBKTNV-7" edge="1">
          <mxGeometry y="10" relative="1" as="geometry">
            <mxPoint as="offset" />
          </mxGeometry>
        </mxCell>
        <mxCell id="WIyWlLk6GJQsqaUBKTNV-6" value="Are you a registrated user?" style="rhombus;whiteSpace=wrap;html=1;shadow=0;fontFamily=Helvetica;fontSize=12;align=center;strokeWidth=1;spacing=6;spacingTop=-4;" parent="WIyWlLk6GJQsqaUBKTNV-1" vertex="1">
          <mxGeometry x="170" y="170" width="100" height="80" as="geometry" />
        </mxCell>
        <mxCell id="WIyWlLk6GJQsqaUBKTNV-7" value="Registration with acess level &quot;client&quot;" style="rounded=1;whiteSpace=wrap;html=1;fontSize=12;glass=0;strokeWidth=1;shadow=0;" parent="WIyWlLk6GJQsqaUBKTNV-1" vertex="1">
          <mxGeometry x="320" y="190" width="120" height="40" as="geometry" />
        </mxCell>
        <mxCell id="WIyWlLk6GJQsqaUBKTNV-8" value="No" style="rounded=0;html=1;jettySize=auto;orthogonalLoop=1;fontSize=11;endArrow=block;endFill=0;endSize=8;strokeWidth=1;shadow=0;labelBackgroundColor=none;edgeStyle=orthogonalEdgeStyle;" parent="WIyWlLk6GJQsqaUBKTNV-1" source="WIyWlLk6GJQsqaUBKTNV-10" edge="1">
          <mxGeometry x="-1" y="86" relative="1" as="geometry">
            <mxPoint x="-16" y="-50" as="offset" />
            <mxPoint x="220" y="470" as="targetPoint" />
          </mxGeometry>
        </mxCell>
        <mxCell id="WIyWlLk6GJQsqaUBKTNV-9" value="Yes" style="edgeStyle=orthogonalEdgeStyle;rounded=0;html=1;jettySize=auto;orthogonalLoop=1;fontSize=11;endArrow=block;endFill=0;endSize=8;strokeWidth=1;shadow=0;labelBackgroundColor=none;" parent="WIyWlLk6GJQsqaUBKTNV-1" source="WIyWlLk6GJQsqaUBKTNV-10" target="WIyWlLk6GJQsqaUBKTNV-12" edge="1">
          <mxGeometry x="-1" y="-76" relative="1" as="geometry">
            <mxPoint x="-30" y="-6" as="offset" />
          </mxGeometry>
        </mxCell>
        <mxCell id="WIyWlLk6GJQsqaUBKTNV-10" value="Login. &lt;br&gt;Is a user a labrarian?" style="rhombus;whiteSpace=wrap;html=1;shadow=0;fontFamily=Helvetica;fontSize=12;align=center;strokeWidth=1;spacing=6;spacingTop=-4;" parent="WIyWlLk6GJQsqaUBKTNV-1" vertex="1">
          <mxGeometry x="170" y="290" width="100" height="80" as="geometry" />
        </mxCell>
        <mxCell id="VUuJxfTxhFCesFp1tUoB-286" value="" style="edgeStyle=none;rounded=1;sketch=0;orthogonalLoop=1;jettySize=auto;html=1;" edge="1" parent="WIyWlLk6GJQsqaUBKTNV-1" source="WIyWlLk6GJQsqaUBKTNV-12">
          <mxGeometry relative="1" as="geometry">
            <mxPoint x="480" y="330" as="targetPoint" />
          </mxGeometry>
        </mxCell>
        <mxCell id="WIyWlLk6GJQsqaUBKTNV-12" value="Choose an action from clients&#39; menu" style="rounded=1;whiteSpace=wrap;html=1;fontSize=12;glass=0;strokeWidth=1;shadow=0;" parent="WIyWlLk6GJQsqaUBKTNV-1" vertex="1">
          <mxGeometry x="320" y="310" width="120" height="40" as="geometry" />
        </mxCell>
        <mxCell id="VUuJxfTxhFCesFp1tUoB-210" value="" style="edgeStyle=orthogonalEdgeStyle;rounded=0;orthogonalLoop=1;jettySize=auto;html=1;entryX=0.5;entryY=0;entryDx=0;entryDy=0;exitX=0.5;exitY=1;exitDx=0;exitDy=0;" edge="1" parent="WIyWlLk6GJQsqaUBKTNV-1" source="WIyWlLk6GJQsqaUBKTNV-7" target="WIyWlLk6GJQsqaUBKTNV-12">
          <mxGeometry relative="1" as="geometry">
            <mxPoint x="380" y="250" as="sourcePoint" />
            <mxPoint x="380" y="290" as="targetPoint" />
            <Array as="points" />
          </mxGeometry>
        </mxCell>
        <mxCell id="VUuJxfTxhFCesFp1tUoB-285" value="Find a book by author" style="whiteSpace=wrap;html=1;rounded=1;shadow=0;strokeWidth=1;glass=0;" vertex="1" parent="WIyWlLk6GJQsqaUBKTNV-1">
          <mxGeometry x="499" y="310" width="80" height="40" as="geometry" />
        </mxCell>
        <mxCell id="VUuJxfTxhFCesFp1tUoB-290" style="edgeStyle=none;rounded=1;sketch=0;orthogonalLoop=1;jettySize=auto;html=1;exitX=0;exitY=1;exitDx=0;exitDy=0;" edge="1" parent="WIyWlLk6GJQsqaUBKTNV-1">
          <mxGeometry relative="1" as="geometry">
            <mxPoint x="550" y="410" as="sourcePoint" />
            <mxPoint x="550" y="410" as="targetPoint" />
          </mxGeometry>
        </mxCell>
        <mxCell id="VUuJxfTxhFCesFp1tUoB-291" value="Show all books" style="whiteSpace=wrap;html=1;rounded=1;shadow=0;strokeWidth=1;glass=0;" vertex="1" parent="WIyWlLk6GJQsqaUBKTNV-1">
          <mxGeometry x="499" y="160" width="80" height="40" as="geometry" />
        </mxCell>
        <mxCell id="VUuJxfTxhFCesFp1tUoB-292" value="Find a book by title" style="whiteSpace=wrap;html=1;rounded=1;shadow=0;strokeWidth=1;glass=0;" vertex="1" parent="WIyWlLk6GJQsqaUBKTNV-1">
          <mxGeometry x="499" y="210" width="80" height="40" as="geometry" />
        </mxCell>
        <mxCell id="VUuJxfTxhFCesFp1tUoB-293" value="Find a book by author" style="whiteSpace=wrap;html=1;rounded=1;shadow=0;strokeWidth=1;glass=0;" vertex="1" parent="WIyWlLk6GJQsqaUBKTNV-1">
          <mxGeometry x="499" y="260" width="80" height="40" as="geometry" />
        </mxCell>
        <mxCell id="VUuJxfTxhFCesFp1tUoB-294" value="Show client&#39;s orders" style="whiteSpace=wrap;html=1;rounded=1;shadow=0;strokeWidth=1;glass=0;" vertex="1" parent="WIyWlLk6GJQsqaUBKTNV-1">
          <mxGeometry x="499" y="410" width="80" height="40" as="geometry" />
        </mxCell>
        <mxCell id="VUuJxfTxhFCesFp1tUoB-295" value="Update clients info" style="whiteSpace=wrap;html=1;rounded=1;shadow=0;strokeWidth=1;glass=0;" vertex="1" parent="WIyWlLk6GJQsqaUBKTNV-1">
          <mxGeometry x="499" y="360" width="80" height="40" as="geometry" />
        </mxCell>
        <mxCell id="VUuJxfTxhFCesFp1tUoB-298" value="" style="endArrow=none;html=1;rounded=1;sketch=0;curved=0;" edge="1" parent="WIyWlLk6GJQsqaUBKTNV-1">
          <mxGeometry width="50" height="50" relative="1" as="geometry">
            <mxPoint x="480" y="180" as="sourcePoint" />
            <mxPoint x="480" y="480" as="targetPoint" />
            <Array as="points">
              <mxPoint x="480" y="320" />
              <mxPoint x="480" y="360" />
            </Array>
          </mxGeometry>
        </mxCell>
        <mxCell id="VUuJxfTxhFCesFp1tUoB-306" style="edgeStyle=none;rounded=1;sketch=0;orthogonalLoop=1;jettySize=auto;html=1;" edge="1" parent="WIyWlLk6GJQsqaUBKTNV-1">
          <mxGeometry relative="1" as="geometry">
            <mxPoint x="499" y="229.5" as="targetPoint" />
            <mxPoint x="479" y="230" as="sourcePoint" />
          </mxGeometry>
        </mxCell>
        <mxCell id="VUuJxfTxhFCesFp1tUoB-308" style="edgeStyle=none;rounded=1;sketch=0;orthogonalLoop=1;jettySize=auto;html=1;" edge="1" parent="WIyWlLk6GJQsqaUBKTNV-1">
          <mxGeometry relative="1" as="geometry">
            <mxPoint x="499" y="279.5" as="targetPoint" />
            <mxPoint x="479" y="279.5" as="sourcePoint" />
          </mxGeometry>
        </mxCell>
        <mxCell id="VUuJxfTxhFCesFp1tUoB-309" style="edgeStyle=none;rounded=1;sketch=0;orthogonalLoop=1;jettySize=auto;html=1;" edge="1" parent="WIyWlLk6GJQsqaUBKTNV-1">
          <mxGeometry relative="1" as="geometry">
            <mxPoint x="500" y="179.5" as="targetPoint" />
            <mxPoint x="480" y="180" as="sourcePoint" />
            <Array as="points">
              <mxPoint x="480" y="179.5" />
            </Array>
          </mxGeometry>
        </mxCell>
        <mxCell id="VUuJxfTxhFCesFp1tUoB-310" style="edgeStyle=none;rounded=1;sketch=0;orthogonalLoop=1;jettySize=auto;html=1;entryX=0;entryY=0.5;entryDx=0;entryDy=0;" edge="1" parent="WIyWlLk6GJQsqaUBKTNV-1" target="VUuJxfTxhFCesFp1tUoB-294">
          <mxGeometry relative="1" as="geometry">
            <mxPoint x="511" y="429.5" as="targetPoint" />
            <mxPoint x="490" y="430" as="sourcePoint" />
            <Array as="points">
              <mxPoint x="480" y="430" />
              <mxPoint x="490" y="430" />
            </Array>
          </mxGeometry>
        </mxCell>
        <mxCell id="VUuJxfTxhFCesFp1tUoB-311" style="edgeStyle=none;rounded=1;sketch=0;orthogonalLoop=1;jettySize=auto;html=1;" edge="1" parent="WIyWlLk6GJQsqaUBKTNV-1">
          <mxGeometry relative="1" as="geometry">
            <mxPoint x="499" y="380" as="targetPoint" />
            <mxPoint x="480" y="380" as="sourcePoint" />
            <Array as="points">
              <mxPoint x="499" y="380.5" />
            </Array>
          </mxGeometry>
        </mxCell>
        <mxCell id="VUuJxfTxhFCesFp1tUoB-312" style="edgeStyle=none;rounded=1;sketch=0;orthogonalLoop=1;jettySize=auto;html=1;" edge="1" parent="WIyWlLk6GJQsqaUBKTNV-1">
          <mxGeometry relative="1" as="geometry">
            <mxPoint x="500" y="330" as="targetPoint" />
            <mxPoint x="480" y="330" as="sourcePoint" />
          </mxGeometry>
        </mxCell>
        <mxCell id="VUuJxfTxhFCesFp1tUoB-313" style="edgeStyle=none;rounded=1;sketch=0;orthogonalLoop=1;jettySize=auto;html=1;entryX=1;entryY=0.75;entryDx=0;entryDy=0;" edge="1" parent="WIyWlLk6GJQsqaUBKTNV-1">
          <mxGeometry relative="1" as="geometry">
            <mxPoint x="579" y="220" as="sourcePoint" />
            <mxPoint x="579" y="220" as="targetPoint" />
          </mxGeometry>
        </mxCell>
        <mxCell id="VUuJxfTxhFCesFp1tUoB-314" value="To clients&#39; menu" style="rounded=0;whiteSpace=wrap;html=1;sketch=0;" vertex="1" parent="WIyWlLk6GJQsqaUBKTNV-1">
          <mxGeometry x="690" y="355" width="80" height="30" as="geometry" />
        </mxCell>
        <mxCell id="VUuJxfTxhFCesFp1tUoB-316" value="Exit" style="rounded=0;whiteSpace=wrap;html=1;sketch=0;" vertex="1" parent="WIyWlLk6GJQsqaUBKTNV-1">
          <mxGeometry x="690" y="275" width="80" height="30" as="geometry" />
        </mxCell>
        <mxCell id="VUuJxfTxhFCesFp1tUoB-317" value="" style="endArrow=none;html=1;rounded=1;sketch=0;curved=0;entryX=1;entryY=0.5;entryDx=0;entryDy=0;exitX=1;exitY=0.75;exitDx=0;exitDy=0;" edge="1" parent="WIyWlLk6GJQsqaUBKTNV-1">
          <mxGeometry width="50" height="50" relative="1" as="geometry">
            <mxPoint x="579" y="490" as="sourcePoint" />
            <mxPoint x="579" y="185" as="targetPoint" />
            <Array as="points">
              <mxPoint x="599" y="490" />
              <mxPoint x="599" y="285" />
              <mxPoint x="599" y="185" />
            </Array>
          </mxGeometry>
        </mxCell>
        <mxCell id="VUuJxfTxhFCesFp1tUoB-318" style="edgeStyle=none;rounded=1;sketch=0;orthogonalLoop=1;jettySize=auto;html=1;exitX=1;exitY=0.5;exitDx=0;exitDy=0;" edge="1" parent="WIyWlLk6GJQsqaUBKTNV-1">
          <mxGeometry relative="1" as="geometry">
            <mxPoint x="599" y="215" as="targetPoint" />
            <mxPoint x="579" y="215" as="sourcePoint" />
          </mxGeometry>
        </mxCell>
        <mxCell id="VUuJxfTxhFCesFp1tUoB-320" style="edgeStyle=none;rounded=1;sketch=0;orthogonalLoop=1;jettySize=auto;html=1;" edge="1" parent="WIyWlLk6GJQsqaUBKTNV-1">
          <mxGeometry relative="1" as="geometry">
            <mxPoint x="599" y="275" as="targetPoint" />
            <mxPoint x="579" y="275" as="sourcePoint" />
            <Array as="points">
              <mxPoint x="579" y="275" />
            </Array>
          </mxGeometry>
        </mxCell>
        <mxCell id="VUuJxfTxhFCesFp1tUoB-321" style="edgeStyle=none;rounded=1;sketch=0;orthogonalLoop=1;jettySize=auto;html=1;exitX=1;exitY=0.5;exitDx=0;exitDy=0;" edge="1" parent="WIyWlLk6GJQsqaUBKTNV-1" source="VUuJxfTxhFCesFp1tUoB-294">
          <mxGeometry relative="1" as="geometry">
            <mxPoint x="600" y="430" as="targetPoint" />
            <mxPoint x="579" y="305" as="sourcePoint" />
          </mxGeometry>
        </mxCell>
        <mxCell id="VUuJxfTxhFCesFp1tUoB-322" style="edgeStyle=none;rounded=1;sketch=0;orthogonalLoop=1;jettySize=auto;html=1;exitX=1;exitY=0.5;exitDx=0;exitDy=0;exitPerimeter=0;" edge="1" parent="WIyWlLk6GJQsqaUBKTNV-1" source="VUuJxfTxhFCesFp1tUoB-285">
          <mxGeometry relative="1" as="geometry">
            <mxPoint x="600" y="330" as="targetPoint" />
            <mxPoint x="579" y="335" as="sourcePoint" />
            <Array as="points">
              <mxPoint x="590" y="330" />
              <mxPoint x="600" y="330" />
            </Array>
          </mxGeometry>
        </mxCell>
        <mxCell id="VUuJxfTxhFCesFp1tUoB-324" value="" style="endArrow=none;html=1;rounded=1;sketch=0;" edge="1" parent="WIyWlLk6GJQsqaUBKTNV-1">
          <mxGeometry width="50" height="50" relative="1" as="geometry">
            <mxPoint x="661" y="375" as="sourcePoint" />
            <mxPoint x="661" y="290" as="targetPoint" />
          </mxGeometry>
        </mxCell>
        <mxCell id="VUuJxfTxhFCesFp1tUoB-325" value="" style="edgeStyle=orthogonalEdgeStyle;rounded=0;orthogonalLoop=1;jettySize=auto;html=1;" edge="1" parent="WIyWlLk6GJQsqaUBKTNV-1">
          <mxGeometry relative="1" as="geometry">
            <mxPoint x="671" y="290" as="sourcePoint" />
            <mxPoint x="691" y="290" as="targetPoint" />
            <Array as="points">
              <mxPoint x="661" y="290" />
              <mxPoint x="661" y="290" />
            </Array>
          </mxGeometry>
        </mxCell>
        <mxCell id="VUuJxfTxhFCesFp1tUoB-326" value="" style="edgeStyle=orthogonalEdgeStyle;rounded=0;orthogonalLoop=1;jettySize=auto;html=1;" edge="1" parent="WIyWlLk6GJQsqaUBKTNV-1">
          <mxGeometry relative="1" as="geometry">
            <mxPoint x="660" y="375" as="sourcePoint" />
            <mxPoint x="690" y="375" as="targetPoint" />
            <Array as="points">
              <mxPoint x="690" y="375" />
              <mxPoint x="690" y="375" />
            </Array>
          </mxGeometry>
        </mxCell>
        <mxCell id="VUuJxfTxhFCesFp1tUoB-327" style="edgeStyle=none;rounded=1;sketch=0;orthogonalLoop=1;jettySize=auto;html=1;" edge="1" parent="WIyWlLk6GJQsqaUBKTNV-1">
          <mxGeometry relative="1" as="geometry">
            <mxPoint x="600" y="380" as="targetPoint" />
            <mxPoint x="580" y="380" as="sourcePoint" />
          </mxGeometry>
        </mxCell>
        <mxCell id="VUuJxfTxhFCesFp1tUoB-328" style="edgeStyle=none;rounded=1;sketch=0;orthogonalLoop=1;jettySize=auto;html=1;" edge="1" parent="WIyWlLk6GJQsqaUBKTNV-1">
          <mxGeometry relative="1" as="geometry">
            <mxPoint x="660" y="330" as="targetPoint" />
            <mxPoint x="600" y="330" as="sourcePoint" />
            <Array as="points" />
          </mxGeometry>
        </mxCell>
        <mxCell id="VUuJxfTxhFCesFp1tUoB-886" value="" style="rounded=0;html=1;jettySize=auto;orthogonalLoop=1;fontSize=11;endArrow=block;endFill=0;endSize=8;strokeWidth=1;shadow=0;labelBackgroundColor=none;edgeStyle=orthogonalEdgeStyle;" edge="1" parent="WIyWlLk6GJQsqaUBKTNV-1" source="VUuJxfTxhFCesFp1tUoB-887" target="VUuJxfTxhFCesFp1tUoB-890">
          <mxGeometry relative="1" as="geometry" />
        </mxCell>
        <mxCell id="VUuJxfTxhFCesFp1tUoB-887" value="Welcome to our library!&amp;nbsp;" style="rounded=1;whiteSpace=wrap;html=1;fontSize=12;glass=0;strokeWidth=1;shadow=0;" vertex="1" parent="WIyWlLk6GJQsqaUBKTNV-1">
          <mxGeometry x="-1010" y="-2260" width="120" height="40" as="geometry" />
        </mxCell>
        <mxCell id="VUuJxfTxhFCesFp1tUoB-888" value="Yes" style="rounded=0;html=1;jettySize=auto;orthogonalLoop=1;fontSize=11;endArrow=block;endFill=0;endSize=8;strokeWidth=1;shadow=0;labelBackgroundColor=none;edgeStyle=orthogonalEdgeStyle;" edge="1" parent="WIyWlLk6GJQsqaUBKTNV-1" source="VUuJxfTxhFCesFp1tUoB-890" target="VUuJxfTxhFCesFp1tUoB-894">
          <mxGeometry y="20" relative="1" as="geometry">
            <mxPoint as="offset" />
          </mxGeometry>
        </mxCell>
        <mxCell id="VUuJxfTxhFCesFp1tUoB-889" value="No" style="edgeStyle=orthogonalEdgeStyle;rounded=0;html=1;jettySize=auto;orthogonalLoop=1;fontSize=11;endArrow=block;endFill=0;endSize=8;strokeWidth=1;shadow=0;labelBackgroundColor=none;" edge="1" parent="WIyWlLk6GJQsqaUBKTNV-1" source="VUuJxfTxhFCesFp1tUoB-890" target="VUuJxfTxhFCesFp1tUoB-891">
          <mxGeometry y="10" relative="1" as="geometry">
            <mxPoint as="offset" />
          </mxGeometry>
        </mxCell>
        <mxCell id="VUuJxfTxhFCesFp1tUoB-890" value="Are you a registrated user?" style="rhombus;whiteSpace=wrap;html=1;shadow=0;fontFamily=Helvetica;fontSize=12;align=center;strokeWidth=1;spacing=6;spacingTop=-4;" vertex="1" parent="WIyWlLk6GJQsqaUBKTNV-1">
          <mxGeometry x="-1000" y="-2170" width="100" height="80" as="geometry" />
        </mxCell>
        <mxCell id="VUuJxfTxhFCesFp1tUoB-891" value="Registration with acess level &quot;client&quot;" style="rounded=1;whiteSpace=wrap;html=1;fontSize=12;glass=0;strokeWidth=1;shadow=0;" vertex="1" parent="WIyWlLk6GJQsqaUBKTNV-1">
          <mxGeometry x="-850" y="-2150" width="120" height="40" as="geometry" />
        </mxCell>
        <mxCell id="VUuJxfTxhFCesFp1tUoB-892" value="No" style="rounded=0;html=1;jettySize=auto;orthogonalLoop=1;fontSize=11;endArrow=block;endFill=0;endSize=8;strokeWidth=1;shadow=0;labelBackgroundColor=none;edgeStyle=orthogonalEdgeStyle;" edge="1" parent="WIyWlLk6GJQsqaUBKTNV-1" source="VUuJxfTxhFCesFp1tUoB-894" target="VUuJxfTxhFCesFp1tUoB-897">
          <mxGeometry x="-1" y="86" relative="1" as="geometry">
            <mxPoint x="-16" y="-50" as="offset" />
          </mxGeometry>
        </mxCell>
        <mxCell id="VUuJxfTxhFCesFp1tUoB-893" value="Yes" style="edgeStyle=orthogonalEdgeStyle;rounded=0;html=1;jettySize=auto;orthogonalLoop=1;fontSize=11;endArrow=block;endFill=0;endSize=8;strokeWidth=1;shadow=0;labelBackgroundColor=none;" edge="1" parent="WIyWlLk6GJQsqaUBKTNV-1" source="VUuJxfTxhFCesFp1tUoB-894" target="VUuJxfTxhFCesFp1tUoB-899">
          <mxGeometry x="-1" y="-76" relative="1" as="geometry">
            <mxPoint x="-30" y="-6" as="offset" />
          </mxGeometry>
        </mxCell>
        <mxCell id="VUuJxfTxhFCesFp1tUoB-894" value="Login. &lt;br&gt;Is a user a labrarian?" style="rhombus;whiteSpace=wrap;html=1;shadow=0;fontFamily=Helvetica;fontSize=12;align=center;strokeWidth=1;spacing=6;spacingTop=-4;" vertex="1" parent="WIyWlLk6GJQsqaUBKTNV-1">
          <mxGeometry x="-1000" y="-2050" width="100" height="80" as="geometry" />
        </mxCell>
        <mxCell id="VUuJxfTxhFCesFp1tUoB-895" value="" style="edgeStyle=orthogonalEdgeStyle;rounded=0;orthogonalLoop=1;jettySize=auto;html=1;entryX=0.602;entryY=-0.047;entryDx=0;entryDy=0;entryPerimeter=0;" edge="1" parent="WIyWlLk6GJQsqaUBKTNV-1" target="VUuJxfTxhFCesFp1tUoB-901">
          <mxGeometry relative="1" as="geometry">
            <mxPoint x="-950" y="-1810" as="sourcePoint" />
            <mxPoint x="-950" y="-1750" as="targetPoint" />
            <Array as="points">
              <mxPoint x="-990" y="-1810" />
            </Array>
          </mxGeometry>
        </mxCell>
        <mxCell id="VUuJxfTxhFCesFp1tUoB-896" value="" style="edgeStyle=orthogonalEdgeStyle;rounded=0;orthogonalLoop=1;jettySize=auto;html=1;" edge="1" parent="WIyWlLk6GJQsqaUBKTNV-1" source="VUuJxfTxhFCesFp1tUoB-897" target="VUuJxfTxhFCesFp1tUoB-900">
          <mxGeometry relative="1" as="geometry">
            <Array as="points">
              <mxPoint x="-950" y="-1810" />
              <mxPoint x="-1270" y="-1810" />
            </Array>
          </mxGeometry>
        </mxCell>
        <mxCell id="VUuJxfTxhFCesFp1tUoB-897" value="Choose an action from librarians&#39; menu" style="rounded=1;whiteSpace=wrap;html=1;fontSize=12;glass=0;strokeWidth=1;shadow=0;" vertex="1" parent="WIyWlLk6GJQsqaUBKTNV-1">
          <mxGeometry x="-1010" y="-1870" width="120" height="40" as="geometry" />
        </mxCell>
        <mxCell id="VUuJxfTxhFCesFp1tUoB-898" value="" style="edgeStyle=none;rounded=1;sketch=0;orthogonalLoop=1;jettySize=auto;html=1;" edge="1" parent="WIyWlLk6GJQsqaUBKTNV-1" source="VUuJxfTxhFCesFp1tUoB-899">
          <mxGeometry relative="1" as="geometry">
            <mxPoint x="-690" y="-2010" as="targetPoint" />
          </mxGeometry>
        </mxCell>
        <mxCell id="VUuJxfTxhFCesFp1tUoB-899" value="Choose an action from clients&#39; menu" style="rounded=1;whiteSpace=wrap;html=1;fontSize=12;glass=0;strokeWidth=1;shadow=0;" vertex="1" parent="WIyWlLk6GJQsqaUBKTNV-1">
          <mxGeometry x="-850" y="-2030" width="120" height="40" as="geometry" />
        </mxCell>
        <mxCell id="VUuJxfTxhFCesFp1tUoB-900" value="Books" style="whiteSpace=wrap;html=1;rounded=1;shadow=0;strokeWidth=1;glass=0;" vertex="1" parent="WIyWlLk6GJQsqaUBKTNV-1">
          <mxGeometry x="-1320" y="-1750" width="100" height="30" as="geometry" />
        </mxCell>
        <mxCell id="VUuJxfTxhFCesFp1tUoB-901" value="Authors" style="rounded=1;whiteSpace=wrap;html=1;rotation=0;" vertex="1" parent="WIyWlLk6GJQsqaUBKTNV-1">
          <mxGeometry x="-1050" y="-1750" width="100" height="30" as="geometry" />
        </mxCell>
        <mxCell id="VUuJxfTxhFCesFp1tUoB-902" value="Users" style="rounded=1;whiteSpace=wrap;html=1;sketch=0;" vertex="1" parent="WIyWlLk6GJQsqaUBKTNV-1">
          <mxGeometry x="-940" y="-1750" width="90" height="30" as="geometry" />
        </mxCell>
        <mxCell id="VUuJxfTxhFCesFp1tUoB-903" value="Orders" style="rounded=1;whiteSpace=wrap;html=1;sketch=0;" vertex="1" parent="WIyWlLk6GJQsqaUBKTNV-1">
          <mxGeometry x="-660" y="-1750" width="90" height="30" as="geometry" />
        </mxCell>
        <mxCell id="VUuJxfTxhFCesFp1tUoB-904" value="" style="edgeStyle=orthogonalEdgeStyle;rounded=0;orthogonalLoop=1;jettySize=auto;html=1;entryX=0.5;entryY=0;entryDx=0;entryDy=0;" edge="1" parent="WIyWlLk6GJQsqaUBKTNV-1">
          <mxGeometry relative="1" as="geometry">
            <mxPoint x="-900" y="-1810" as="sourcePoint" />
            <mxPoint x="-616" y="-1750" as="targetPoint" />
            <Array as="points">
              <mxPoint x="-616" y="-1810" />
            </Array>
          </mxGeometry>
        </mxCell>
        <mxCell id="VUuJxfTxhFCesFp1tUoB-905" value="" style="edgeStyle=orthogonalEdgeStyle;rounded=0;orthogonalLoop=1;jettySize=auto;html=1;entryX=0.5;entryY=0;entryDx=0;entryDy=0;" edge="1" parent="WIyWlLk6GJQsqaUBKTNV-1" target="VUuJxfTxhFCesFp1tUoB-902">
          <mxGeometry relative="1" as="geometry">
            <mxPoint x="-980" y="-1810" as="sourcePoint" />
            <mxPoint x="-870" y="-1750" as="targetPoint" />
            <Array as="points">
              <mxPoint x="-895" y="-1810" />
            </Array>
          </mxGeometry>
        </mxCell>
        <mxCell id="VUuJxfTxhFCesFp1tUoB-906" value="" style="edgeStyle=orthogonalEdgeStyle;rounded=0;orthogonalLoop=1;jettySize=auto;html=1;exitX=0.406;exitY=0.98;exitDx=0;exitDy=0;exitPerimeter=0;" edge="1" parent="WIyWlLk6GJQsqaUBKTNV-1" source="VUuJxfTxhFCesFp1tUoB-900">
          <mxGeometry relative="1" as="geometry">
            <mxPoint x="-1250" y="-1660" as="sourcePoint" />
            <mxPoint x="-1280" y="-1690" as="targetPoint" />
            <Array as="points">
              <mxPoint x="-1260" y="-1721" />
              <mxPoint x="-1260" y="-1690" />
            </Array>
          </mxGeometry>
        </mxCell>
        <mxCell id="VUuJxfTxhFCesFp1tUoB-907" value="" style="edgeStyle=orthogonalEdgeStyle;rounded=0;orthogonalLoop=1;jettySize=auto;html=1;" edge="1" parent="WIyWlLk6GJQsqaUBKTNV-1">
          <mxGeometry relative="1" as="geometry">
            <mxPoint x="-1260" y="-1690" as="sourcePoint" />
            <mxPoint x="-1280" y="-1659.4" as="targetPoint" />
            <Array as="points">
              <mxPoint x="-1260" y="-1690" />
              <mxPoint x="-1260" y="-1659" />
            </Array>
          </mxGeometry>
        </mxCell>
        <mxCell id="VUuJxfTxhFCesFp1tUoB-908" style="edgeStyle=orthogonalEdgeStyle;curved=0;rounded=1;sketch=0;orthogonalLoop=1;jettySize=auto;html=1;exitX=0.75;exitY=1;exitDx=0;exitDy=0;entryX=0.75;entryY=1;entryDx=0;entryDy=0;" edge="1" parent="WIyWlLk6GJQsqaUBKTNV-1" source="VUuJxfTxhFCesFp1tUoB-909" target="VUuJxfTxhFCesFp1tUoB-909">
          <mxGeometry relative="1" as="geometry">
            <mxPoint x="-1110" y="-1640" as="targetPoint" />
          </mxGeometry>
        </mxCell>
        <mxCell id="VUuJxfTxhFCesFp1tUoB-909" value="To labrarians&#39; menu" style="rounded=0;whiteSpace=wrap;html=1;sketch=0;" vertex="1" parent="WIyWlLk6GJQsqaUBKTNV-1">
          <mxGeometry x="-1360" y="-1490" width="80" height="30" as="geometry" />
        </mxCell>
        <mxCell id="VUuJxfTxhFCesFp1tUoB-910" style="edgeStyle=none;rounded=1;sketch=0;orthogonalLoop=1;jettySize=auto;html=1;" edge="1" parent="WIyWlLk6GJQsqaUBKTNV-1" source="VUuJxfTxhFCesFp1tUoB-911">
          <mxGeometry relative="1" as="geometry">
            <mxPoint x="-1380" y="-1660" as="targetPoint" />
          </mxGeometry>
        </mxCell>
        <mxCell id="VUuJxfTxhFCesFp1tUoB-911" value="Delete" style="rounded=0;whiteSpace=wrap;html=1;sketch=0;" vertex="1" parent="WIyWlLk6GJQsqaUBKTNV-1">
          <mxGeometry x="-1360" y="-1670" width="80" height="20" as="geometry" />
        </mxCell>
        <mxCell id="VUuJxfTxhFCesFp1tUoB-912" value="Delete" style="rounded=0;whiteSpace=wrap;html=1;sketch=0;" vertex="1" parent="WIyWlLk6GJQsqaUBKTNV-1">
          <mxGeometry x="-900" y="-1670" width="80" height="20" as="geometry" />
        </mxCell>
        <mxCell id="VUuJxfTxhFCesFp1tUoB-913" value="Add" style="rounded=0;whiteSpace=wrap;html=1;sketch=0;" vertex="1" parent="WIyWlLk6GJQsqaUBKTNV-1">
          <mxGeometry x="-900" y="-1700" width="80" height="20" as="geometry" />
        </mxCell>
        <mxCell id="VUuJxfTxhFCesFp1tUoB-914" value="Show all" style="rounded=0;whiteSpace=wrap;html=1;sketch=0;" vertex="1" parent="WIyWlLk6GJQsqaUBKTNV-1">
          <mxGeometry x="-1360" y="-1610" width="80" height="20" as="geometry" />
        </mxCell>
        <mxCell id="VUuJxfTxhFCesFp1tUoB-915" value="Update info" style="rounded=0;whiteSpace=wrap;html=1;sketch=0;" vertex="1" parent="WIyWlLk6GJQsqaUBKTNV-1">
          <mxGeometry x="-900" y="-1640" width="80" height="20" as="geometry" />
        </mxCell>
        <mxCell id="VUuJxfTxhFCesFp1tUoB-916" value="" style="edgeStyle=orthogonalEdgeStyle;rounded=0;orthogonalLoop=1;jettySize=auto;html=1;" edge="1" parent="WIyWlLk6GJQsqaUBKTNV-1">
          <mxGeometry relative="1" as="geometry">
            <mxPoint x="-1260" y="-1630" as="sourcePoint" />
            <mxPoint x="-1280" y="-1599.4" as="targetPoint" />
            <Array as="points">
              <mxPoint x="-1260" y="-1630" />
              <mxPoint x="-1260" y="-1599" />
            </Array>
          </mxGeometry>
        </mxCell>
        <mxCell id="VUuJxfTxhFCesFp1tUoB-917" value="Find by author" style="rounded=0;whiteSpace=wrap;html=1;sketch=0;" vertex="1" parent="WIyWlLk6GJQsqaUBKTNV-1">
          <mxGeometry x="-1360" y="-1580" width="80" height="20" as="geometry" />
        </mxCell>
        <mxCell id="VUuJxfTxhFCesFp1tUoB-918" value="Find by ID" style="rounded=0;whiteSpace=wrap;html=1;sketch=0;" vertex="1" parent="WIyWlLk6GJQsqaUBKTNV-1">
          <mxGeometry x="-1360" y="-1550" width="80" height="20" as="geometry" />
        </mxCell>
        <mxCell id="VUuJxfTxhFCesFp1tUoB-919" value="Find by title" style="rounded=0;whiteSpace=wrap;html=1;sketch=0;" vertex="1" parent="WIyWlLk6GJQsqaUBKTNV-1">
          <mxGeometry x="-1360" y="-1520" width="80" height="20" as="geometry" />
        </mxCell>
        <mxCell id="VUuJxfTxhFCesFp1tUoB-920" value="Update info" style="rounded=0;whiteSpace=wrap;html=1;sketch=0;" vertex="1" parent="WIyWlLk6GJQsqaUBKTNV-1">
          <mxGeometry x="-1360" y="-1640" width="80" height="20" as="geometry" />
        </mxCell>
        <mxCell id="VUuJxfTxhFCesFp1tUoB-921" value="" style="edgeStyle=orthogonalEdgeStyle;rounded=0;orthogonalLoop=1;jettySize=auto;html=1;" edge="1" parent="WIyWlLk6GJQsqaUBKTNV-1">
          <mxGeometry relative="1" as="geometry">
            <mxPoint x="-1260" y="-1660" as="sourcePoint" />
            <mxPoint x="-1280" y="-1510" as="targetPoint" />
            <Array as="points">
              <mxPoint x="-1260" y="-1510" />
            </Array>
          </mxGeometry>
        </mxCell>
        <mxCell id="VUuJxfTxhFCesFp1tUoB-922" value="" style="edgeStyle=orthogonalEdgeStyle;rounded=0;orthogonalLoop=1;jettySize=auto;html=1;entryX=0;entryY=0.5;entryDx=0;entryDy=0;" edge="1" parent="WIyWlLk6GJQsqaUBKTNV-1" target="VUuJxfTxhFCesFp1tUoB-897">
          <mxGeometry relative="1" as="geometry">
            <mxPoint x="-430" y="-1420" as="sourcePoint" />
            <mxPoint x="-1220" y="-1750" as="targetPoint" />
            <Array as="points">
              <mxPoint x="-1340" y="-1420" />
              <mxPoint x="-1550" y="-1420" />
              <mxPoint x="-1550" y="-1850" />
            </Array>
          </mxGeometry>
        </mxCell>
        <mxCell id="VUuJxfTxhFCesFp1tUoB-923" value="" style="edgeStyle=orthogonalEdgeStyle;rounded=0;orthogonalLoop=1;jettySize=auto;html=1;exitX=0.406;exitY=0.98;exitDx=0;exitDy=0;exitPerimeter=0;entryX=1;entryY=0.5;entryDx=0;entryDy=0;" edge="1" parent="WIyWlLk6GJQsqaUBKTNV-1" target="VUuJxfTxhFCesFp1tUoB-917">
          <mxGeometry relative="1" as="geometry">
            <mxPoint x="-1259.4" y="-1600.6" as="sourcePoint" />
            <mxPoint x="-1270" y="-1570" as="targetPoint" />
            <Array as="points">
              <mxPoint x="-1259" y="-1570" />
            </Array>
          </mxGeometry>
        </mxCell>
        <mxCell id="VUuJxfTxhFCesFp1tUoB-924" value="" style="edgeStyle=orthogonalEdgeStyle;rounded=0;orthogonalLoop=1;jettySize=auto;html=1;entryX=1;entryY=0.5;entryDx=0;entryDy=0;" edge="1" parent="WIyWlLk6GJQsqaUBKTNV-1" target="VUuJxfTxhFCesFp1tUoB-909">
          <mxGeometry relative="1" as="geometry">
            <mxPoint x="-1260" y="-1540" as="sourcePoint" />
            <mxPoint x="-1280" y="-1509.4" as="targetPoint" />
            <Array as="points">
              <mxPoint x="-1260" y="-1475" />
            </Array>
          </mxGeometry>
        </mxCell>
        <mxCell id="VUuJxfTxhFCesFp1tUoB-925" value="Add" style="rounded=0;whiteSpace=wrap;html=1;sketch=0;" vertex="1" parent="WIyWlLk6GJQsqaUBKTNV-1">
          <mxGeometry x="-1360" y="-1700" width="80" height="20" as="geometry" />
        </mxCell>
        <mxCell id="VUuJxfTxhFCesFp1tUoB-926" value="" style="endArrow=none;html=1;rounded=1;sketch=0;curved=0;entryX=0;entryY=0.5;entryDx=0;entryDy=0;exitX=0;exitY=0.5;exitDx=0;exitDy=0;" edge="1" parent="WIyWlLk6GJQsqaUBKTNV-1" source="VUuJxfTxhFCesFp1tUoB-919" target="VUuJxfTxhFCesFp1tUoB-925">
          <mxGeometry width="50" height="50" relative="1" as="geometry">
            <mxPoint x="-1380" y="-1480" as="sourcePoint" />
            <mxPoint x="-900" y="-1440" as="targetPoint" />
            <Array as="points">
              <mxPoint x="-1370" y="-1510" />
              <mxPoint x="-1380" y="-1510" />
              <mxPoint x="-1380" y="-1590" />
              <mxPoint x="-1380" y="-1600" />
              <mxPoint x="-1380" y="-1690" />
            </Array>
          </mxGeometry>
        </mxCell>
        <mxCell id="VUuJxfTxhFCesFp1tUoB-927" value="" style="endArrow=none;html=1;rounded=1;sketch=0;curved=0;" edge="1" parent="WIyWlLk6GJQsqaUBKTNV-1">
          <mxGeometry width="50" height="50" relative="1" as="geometry">
            <mxPoint x="-1390" y="-1560" as="sourcePoint" />
            <mxPoint x="-1390" y="-1640" as="targetPoint" />
            <Array as="points" />
          </mxGeometry>
        </mxCell>
        <mxCell id="VUuJxfTxhFCesFp1tUoB-928" value="" style="endArrow=none;html=1;rounded=1;sketch=0;curved=0;" edge="1" parent="WIyWlLk6GJQsqaUBKTNV-1">
          <mxGeometry width="50" height="50" relative="1" as="geometry">
            <mxPoint x="-1410" y="-1600" as="sourcePoint" />
            <mxPoint x="-1380" y="-1600" as="targetPoint" />
            <Array as="points" />
          </mxGeometry>
        </mxCell>
        <mxCell id="VUuJxfTxhFCesFp1tUoB-929" value="" style="endArrow=none;html=1;rounded=1;sketch=0;curved=0;" edge="1" parent="WIyWlLk6GJQsqaUBKTNV-1">
          <mxGeometry width="50" height="50" relative="1" as="geometry">
            <mxPoint x="-920" y="-1715" as="sourcePoint" />
            <mxPoint x="-920" y="-1475" as="targetPoint" />
          </mxGeometry>
        </mxCell>
        <mxCell id="VUuJxfTxhFCesFp1tUoB-930" value="" style="edgeStyle=orthogonalEdgeStyle;rounded=0;orthogonalLoop=1;jettySize=auto;html=1;" edge="1" parent="WIyWlLk6GJQsqaUBKTNV-1">
          <mxGeometry relative="1" as="geometry">
            <mxPoint x="-1420" y="-1640" as="sourcePoint" />
            <mxPoint x="-1420" y="-1640" as="targetPoint" />
            <Array as="points">
              <mxPoint x="-1390" y="-1640" />
              <mxPoint x="-1390" y="-1640" />
            </Array>
          </mxGeometry>
        </mxCell>
        <mxCell id="VUuJxfTxhFCesFp1tUoB-931" value="" style="edgeStyle=orthogonalEdgeStyle;rounded=0;orthogonalLoop=1;jettySize=auto;html=1;" edge="1" parent="WIyWlLk6GJQsqaUBKTNV-1">
          <mxGeometry relative="1" as="geometry">
            <mxPoint x="-1410" y="-1600.5" as="sourcePoint" />
            <mxPoint x="-1420" y="-1600.5" as="targetPoint" />
            <Array as="points">
              <mxPoint x="-1380" y="-1600.5" />
              <mxPoint x="-1380" y="-1600.5" />
            </Array>
          </mxGeometry>
        </mxCell>
        <mxCell id="VUuJxfTxhFCesFp1tUoB-932" value="" style="edgeStyle=orthogonalEdgeStyle;rounded=0;orthogonalLoop=1;jettySize=auto;html=1;" edge="1" parent="WIyWlLk6GJQsqaUBKTNV-1">
          <mxGeometry relative="1" as="geometry">
            <mxPoint x="-1420" y="-1560" as="sourcePoint" />
            <mxPoint x="-1420" y="-1560" as="targetPoint" />
            <Array as="points">
              <mxPoint x="-1390" y="-1560" />
              <mxPoint x="-1390" y="-1560" />
            </Array>
          </mxGeometry>
        </mxCell>
        <mxCell id="VUuJxfTxhFCesFp1tUoB-933" value="To labrarians&#39; menu" style="rounded=0;whiteSpace=wrap;html=1;sketch=0;" vertex="1" parent="WIyWlLk6GJQsqaUBKTNV-1">
          <mxGeometry x="-1500" y="-1570" width="80" height="30" as="geometry" />
        </mxCell>
        <mxCell id="VUuJxfTxhFCesFp1tUoB-934" value="Exit" style="rounded=0;whiteSpace=wrap;html=1;sketch=0;" vertex="1" parent="WIyWlLk6GJQsqaUBKTNV-1">
          <mxGeometry x="-1500" y="-1610" width="80" height="20" as="geometry" />
        </mxCell>
        <mxCell id="VUuJxfTxhFCesFp1tUoB-935" value="" style="edgeStyle=orthogonalEdgeStyle;rounded=0;orthogonalLoop=1;jettySize=auto;html=1;" edge="1" parent="WIyWlLk6GJQsqaUBKTNV-1">
          <mxGeometry relative="1" as="geometry">
            <mxPoint x="-1540" y="-1560" as="sourcePoint" />
            <mxPoint x="-1550" y="-1559.5" as="targetPoint" />
            <Array as="points">
              <mxPoint x="-1500" y="-1560" />
              <mxPoint x="-1500" y="-1560" />
            </Array>
          </mxGeometry>
        </mxCell>
        <mxCell id="VUuJxfTxhFCesFp1tUoB-936" value="" style="edgeStyle=orthogonalEdgeStyle;rounded=0;orthogonalLoop=1;jettySize=auto;html=1;" edge="1" parent="WIyWlLk6GJQsqaUBKTNV-1">
          <mxGeometry relative="1" as="geometry">
            <mxPoint x="-1320" y="-1460" as="sourcePoint" />
            <mxPoint x="-1320" y="-1420" as="targetPoint" />
            <Array as="points">
              <mxPoint x="-1320" y="-1430" />
              <mxPoint x="-1320" y="-1430" />
            </Array>
          </mxGeometry>
        </mxCell>
        <mxCell id="VUuJxfTxhFCesFp1tUoB-937" value="To books menu" style="rounded=0;whiteSpace=wrap;html=1;sketch=0;" vertex="1" parent="WIyWlLk6GJQsqaUBKTNV-1">
          <mxGeometry x="-1500" y="-1655" width="80" height="30" as="geometry" />
        </mxCell>
        <mxCell id="VUuJxfTxhFCesFp1tUoB-938" value="" style="edgeStyle=orthogonalEdgeStyle;rounded=0;orthogonalLoop=1;jettySize=auto;html=1;entryX=0;entryY=0.5;entryDx=0;entryDy=0;exitX=0.5;exitY=0;exitDx=0;exitDy=0;" edge="1" parent="WIyWlLk6GJQsqaUBKTNV-1" source="VUuJxfTxhFCesFp1tUoB-937" target="VUuJxfTxhFCesFp1tUoB-900">
          <mxGeometry relative="1" as="geometry">
            <mxPoint x="-1480" y="-1660" as="sourcePoint" />
            <mxPoint x="-1480" y="-1680" as="targetPoint" />
            <Array as="points">
              <mxPoint x="-1430" y="-1655" />
              <mxPoint x="-1430" y="-1735" />
            </Array>
          </mxGeometry>
        </mxCell>
        <mxCell id="VUuJxfTxhFCesFp1tUoB-939" value="" style="edgeStyle=orthogonalEdgeStyle;rounded=0;orthogonalLoop=1;jettySize=auto;html=1;" edge="1" parent="WIyWlLk6GJQsqaUBKTNV-1">
          <mxGeometry relative="1" as="geometry">
            <mxPoint x="-1370" y="-1630" as="sourcePoint" />
            <mxPoint x="-1380" y="-1630" as="targetPoint" />
            <Array as="points">
              <mxPoint x="-1360" y="-1630" />
              <mxPoint x="-1360" y="-1630" />
            </Array>
          </mxGeometry>
        </mxCell>
        <mxCell id="VUuJxfTxhFCesFp1tUoB-940" value="" style="edgeStyle=orthogonalEdgeStyle;rounded=0;orthogonalLoop=1;jettySize=auto;html=1;" edge="1" parent="WIyWlLk6GJQsqaUBKTNV-1">
          <mxGeometry relative="1" as="geometry">
            <mxPoint x="-1370" y="-1600" as="sourcePoint" />
            <mxPoint x="-1380" y="-1600" as="targetPoint" />
            <Array as="points">
              <mxPoint x="-1360" y="-1600" />
              <mxPoint x="-1360" y="-1600" />
            </Array>
          </mxGeometry>
        </mxCell>
        <mxCell id="VUuJxfTxhFCesFp1tUoB-941" value="" style="edgeStyle=orthogonalEdgeStyle;rounded=0;orthogonalLoop=1;jettySize=auto;html=1;" edge="1" parent="WIyWlLk6GJQsqaUBKTNV-1">
          <mxGeometry relative="1" as="geometry">
            <mxPoint x="-1370" y="-1570" as="sourcePoint" />
            <mxPoint x="-1380" y="-1570" as="targetPoint" />
            <Array as="points">
              <mxPoint x="-1360" y="-1570" />
              <mxPoint x="-1360" y="-1570" />
            </Array>
          </mxGeometry>
        </mxCell>
        <mxCell id="VUuJxfTxhFCesFp1tUoB-942" value="" style="edgeStyle=orthogonalEdgeStyle;rounded=0;orthogonalLoop=1;jettySize=auto;html=1;" edge="1" parent="WIyWlLk6GJQsqaUBKTNV-1">
          <mxGeometry relative="1" as="geometry">
            <mxPoint x="-1360" y="-1540" as="sourcePoint" />
            <mxPoint x="-1380" y="-1540" as="targetPoint" />
            <Array as="points">
              <mxPoint x="-1370" y="-1540" />
              <mxPoint x="-1370" y="-1540" />
            </Array>
          </mxGeometry>
        </mxCell>
        <mxCell id="VUuJxfTxhFCesFp1tUoB-943" style="edgeStyle=none;rounded=1;sketch=0;orthogonalLoop=1;jettySize=auto;html=1;entryX=0;entryY=0.5;entryDx=0;entryDy=0;" edge="1" parent="WIyWlLk6GJQsqaUBKTNV-1" source="VUuJxfTxhFCesFp1tUoB-918" target="VUuJxfTxhFCesFp1tUoB-918">
          <mxGeometry relative="1" as="geometry" />
        </mxCell>
        <mxCell id="VUuJxfTxhFCesFp1tUoB-944" style="edgeStyle=none;rounded=1;sketch=0;orthogonalLoop=1;jettySize=auto;html=1;entryX=1;entryY=0.75;entryDx=0;entryDy=0;" edge="1" parent="WIyWlLk6GJQsqaUBKTNV-1" source="VUuJxfTxhFCesFp1tUoB-912" target="VUuJxfTxhFCesFp1tUoB-912">
          <mxGeometry relative="1" as="geometry" />
        </mxCell>
        <mxCell id="VUuJxfTxhFCesFp1tUoB-945" value="Show all" style="rounded=0;whiteSpace=wrap;html=1;sketch=0;" vertex="1" parent="WIyWlLk6GJQsqaUBKTNV-1">
          <mxGeometry x="-900" y="-1610" width="80" height="20" as="geometry" />
        </mxCell>
        <mxCell id="VUuJxfTxhFCesFp1tUoB-946" style="edgeStyle=none;rounded=1;sketch=0;orthogonalLoop=1;jettySize=auto;html=1;" edge="1" parent="WIyWlLk6GJQsqaUBKTNV-1">
          <mxGeometry relative="1" as="geometry">
            <mxPoint x="-900" y="-1570" as="targetPoint" />
            <mxPoint x="-921" y="-1570" as="sourcePoint" />
          </mxGeometry>
        </mxCell>
        <mxCell id="VUuJxfTxhFCesFp1tUoB-947" value="Find by name" style="rounded=0;whiteSpace=wrap;html=1;sketch=0;" vertex="1" parent="WIyWlLk6GJQsqaUBKTNV-1">
          <mxGeometry x="-900" y="-1580" width="80" height="20" as="geometry" />
        </mxCell>
        <mxCell id="VUuJxfTxhFCesFp1tUoB-948" value="Find by ID" style="rounded=0;whiteSpace=wrap;html=1;sketch=0;" vertex="1" parent="WIyWlLk6GJQsqaUBKTNV-1">
          <mxGeometry x="-900" y="-1550" width="80" height="20" as="geometry" />
        </mxCell>
        <mxCell id="VUuJxfTxhFCesFp1tUoB-949" style="edgeStyle=none;rounded=1;sketch=0;orthogonalLoop=1;jettySize=auto;html=1;" edge="1" parent="WIyWlLk6GJQsqaUBKTNV-1">
          <mxGeometry relative="1" as="geometry">
            <mxPoint x="-900" y="-1540" as="targetPoint" />
            <mxPoint x="-921" y="-1540" as="sourcePoint" />
          </mxGeometry>
        </mxCell>
        <mxCell id="VUuJxfTxhFCesFp1tUoB-950" style="edgeStyle=none;rounded=1;sketch=0;orthogonalLoop=1;jettySize=auto;html=1;" edge="1" parent="WIyWlLk6GJQsqaUBKTNV-1">
          <mxGeometry relative="1" as="geometry">
            <mxPoint x="-900" y="-1690.5" as="targetPoint" />
            <mxPoint x="-920" y="-1690" as="sourcePoint" />
          </mxGeometry>
        </mxCell>
        <mxCell id="VUuJxfTxhFCesFp1tUoB-951" value="Find by e-mail" style="rounded=0;whiteSpace=wrap;html=1;sketch=0;" vertex="1" parent="WIyWlLk6GJQsqaUBKTNV-1">
          <mxGeometry x="-900" y="-1520" width="80" height="20" as="geometry" />
        </mxCell>
        <mxCell id="VUuJxfTxhFCesFp1tUoB-952" style="edgeStyle=none;rounded=1;sketch=0;orthogonalLoop=1;jettySize=auto;html=1;" edge="1" parent="WIyWlLk6GJQsqaUBKTNV-1">
          <mxGeometry relative="1" as="geometry">
            <mxPoint x="-900" y="-1510" as="targetPoint" />
            <mxPoint x="-921" y="-1510" as="sourcePoint" />
          </mxGeometry>
        </mxCell>
        <mxCell id="VUuJxfTxhFCesFp1tUoB-953" value="To labrarians&#39; menu" style="rounded=0;whiteSpace=wrap;html=1;sketch=0;" vertex="1" parent="WIyWlLk6GJQsqaUBKTNV-1">
          <mxGeometry x="-900" y="-1490" width="80" height="30" as="geometry" />
        </mxCell>
        <mxCell id="VUuJxfTxhFCesFp1tUoB-954" style="edgeStyle=none;rounded=1;sketch=0;orthogonalLoop=1;jettySize=auto;html=1;" edge="1" parent="WIyWlLk6GJQsqaUBKTNV-1">
          <mxGeometry relative="1" as="geometry">
            <mxPoint x="-900" y="-1475.5" as="targetPoint" />
            <mxPoint x="-920" y="-1475" as="sourcePoint" />
          </mxGeometry>
        </mxCell>
        <mxCell id="VUuJxfTxhFCesFp1tUoB-955" value="" style="edgeStyle=orthogonalEdgeStyle;rounded=0;orthogonalLoop=1;jettySize=auto;html=1;exitX=0.5;exitY=1;exitDx=0;exitDy=0;" edge="1" parent="WIyWlLk6GJQsqaUBKTNV-1" source="VUuJxfTxhFCesFp1tUoB-953">
          <mxGeometry relative="1" as="geometry">
            <mxPoint x="-820" y="-1450" as="sourcePoint" />
            <mxPoint x="-860" y="-1420" as="targetPoint" />
            <Array as="points" />
          </mxGeometry>
        </mxCell>
        <mxCell id="VUuJxfTxhFCesFp1tUoB-956" value="" style="edgeStyle=orthogonalEdgeStyle;rounded=0;orthogonalLoop=1;jettySize=auto;html=1;" edge="1" parent="WIyWlLk6GJQsqaUBKTNV-1">
          <mxGeometry relative="1" as="geometry">
            <mxPoint x="-1029" y="-1490" as="sourcePoint" />
            <mxPoint x="-1029" y="-1420" as="targetPoint" />
            <Array as="points">
              <mxPoint x="-1028.1" y="-1445" />
              <mxPoint x="-1028.1" y="-1445" />
            </Array>
          </mxGeometry>
        </mxCell>
        <mxCell id="VUuJxfTxhFCesFp1tUoB-957" value="Add" style="rounded=0;whiteSpace=wrap;html=1;sketch=0;" vertex="1" parent="WIyWlLk6GJQsqaUBKTNV-1">
          <mxGeometry x="-1069" y="-1700" width="80.6" height="20" as="geometry" />
        </mxCell>
        <mxCell id="VUuJxfTxhFCesFp1tUoB-958" value="Delete" style="rounded=0;whiteSpace=wrap;html=1;sketch=0;" vertex="1" parent="WIyWlLk6GJQsqaUBKTNV-1">
          <mxGeometry x="-1068.4" y="-1670" width="80" height="20" as="geometry" />
        </mxCell>
        <mxCell id="VUuJxfTxhFCesFp1tUoB-959" value="Show all" style="rounded=0;whiteSpace=wrap;html=1;sketch=0;" vertex="1" parent="WIyWlLk6GJQsqaUBKTNV-1">
          <mxGeometry x="-1069" y="-1610" width="80" height="20" as="geometry" />
        </mxCell>
        <mxCell id="VUuJxfTxhFCesFp1tUoB-960" value="Find by name" style="rounded=0;whiteSpace=wrap;html=1;sketch=0;" vertex="1" parent="WIyWlLk6GJQsqaUBKTNV-1">
          <mxGeometry x="-1068.4" y="-1580" width="80" height="20" as="geometry" />
        </mxCell>
        <mxCell id="VUuJxfTxhFCesFp1tUoB-961" value="Find by ID" style="rounded=0;whiteSpace=wrap;html=1;sketch=0;" vertex="1" parent="WIyWlLk6GJQsqaUBKTNV-1">
          <mxGeometry x="-1069" y="-1550" width="80.6" height="20" as="geometry" />
        </mxCell>
        <mxCell id="VUuJxfTxhFCesFp1tUoB-962" value="To labrarians&#39; menu" style="rounded=0;whiteSpace=wrap;html=1;sketch=0;" vertex="1" parent="WIyWlLk6GJQsqaUBKTNV-1">
          <mxGeometry x="-1068.4" y="-1520" width="80" height="30" as="geometry" />
        </mxCell>
        <mxCell id="VUuJxfTxhFCesFp1tUoB-963" value="Update info" style="rounded=0;whiteSpace=wrap;html=1;sketch=0;" vertex="1" parent="WIyWlLk6GJQsqaUBKTNV-1">
          <mxGeometry x="-1069" y="-1640" width="80" height="20" as="geometry" />
        </mxCell>
        <mxCell id="VUuJxfTxhFCesFp1tUoB-964" value="" style="edgeStyle=orthogonalEdgeStyle;rounded=0;orthogonalLoop=1;jettySize=auto;html=1;" edge="1" parent="WIyWlLk6GJQsqaUBKTNV-1">
          <mxGeometry relative="1" as="geometry">
            <mxPoint x="-1260" y="-1540" as="sourcePoint" />
            <mxPoint x="-1280" y="-1540" as="targetPoint" />
            <Array as="points">
              <mxPoint x="-1280" y="-1540" />
              <mxPoint x="-1280" y="-1540" />
            </Array>
          </mxGeometry>
        </mxCell>
        <mxCell id="VUuJxfTxhFCesFp1tUoB-965" value="" style="edgeStyle=orthogonalEdgeStyle;rounded=0;orthogonalLoop=1;jettySize=auto;html=1;" edge="1" parent="WIyWlLk6GJQsqaUBKTNV-1">
          <mxGeometry relative="1" as="geometry">
            <mxPoint x="-1260" y="-1630" as="sourcePoint" />
            <mxPoint x="-1280" y="-1630" as="targetPoint" />
            <Array as="points">
              <mxPoint x="-1280" y="-1630" />
              <mxPoint x="-1280" y="-1630" />
            </Array>
          </mxGeometry>
        </mxCell>
        <mxCell id="VUuJxfTxhFCesFp1tUoB-966" style="edgeStyle=none;rounded=1;sketch=0;orthogonalLoop=1;jettySize=auto;html=1;" edge="1" parent="WIyWlLk6GJQsqaUBKTNV-1">
          <mxGeometry relative="1" as="geometry">
            <mxPoint x="-1090" y="-1660" as="targetPoint" />
            <mxPoint x="-1070" y="-1660" as="sourcePoint" />
          </mxGeometry>
        </mxCell>
        <mxCell id="VUuJxfTxhFCesFp1tUoB-967" value="" style="endArrow=none;html=1;rounded=1;sketch=0;curved=0;entryX=0;entryY=0.5;entryDx=0;entryDy=0;" edge="1" parent="WIyWlLk6GJQsqaUBKTNV-1">
          <mxGeometry width="50" height="50" relative="1" as="geometry">
            <mxPoint x="-1069" y="-1540" as="sourcePoint" />
            <mxPoint x="-1069" y="-1690" as="targetPoint" />
            <Array as="points">
              <mxPoint x="-1089" y="-1540" />
              <mxPoint x="-1089" y="-1590" />
              <mxPoint x="-1089" y="-1600" />
              <mxPoint x="-1089" y="-1690" />
            </Array>
          </mxGeometry>
        </mxCell>
        <mxCell id="VUuJxfTxhFCesFp1tUoB-968" value="" style="endArrow=none;html=1;rounded=1;sketch=0;curved=0;" edge="1" parent="WIyWlLk6GJQsqaUBKTNV-1">
          <mxGeometry width="50" height="50" relative="1" as="geometry">
            <mxPoint x="-1100" y="-1560" as="sourcePoint" />
            <mxPoint x="-1100" y="-1640" as="targetPoint" />
            <Array as="points" />
          </mxGeometry>
        </mxCell>
        <mxCell id="VUuJxfTxhFCesFp1tUoB-969" value="" style="endArrow=none;html=1;rounded=1;sketch=0;curved=0;" edge="1" parent="WIyWlLk6GJQsqaUBKTNV-1">
          <mxGeometry width="50" height="50" relative="1" as="geometry">
            <mxPoint x="-1120" y="-1600" as="sourcePoint" />
            <mxPoint x="-1090" y="-1600" as="targetPoint" />
            <Array as="points" />
          </mxGeometry>
        </mxCell>
        <mxCell id="VUuJxfTxhFCesFp1tUoB-970" value="" style="edgeStyle=orthogonalEdgeStyle;rounded=0;orthogonalLoop=1;jettySize=auto;html=1;" edge="1" parent="WIyWlLk6GJQsqaUBKTNV-1">
          <mxGeometry relative="1" as="geometry">
            <mxPoint x="-1130" y="-1640" as="sourcePoint" />
            <mxPoint x="-1130" y="-1640" as="targetPoint" />
            <Array as="points">
              <mxPoint x="-1100" y="-1640" />
              <mxPoint x="-1100" y="-1640" />
            </Array>
          </mxGeometry>
        </mxCell>
        <mxCell id="VUuJxfTxhFCesFp1tUoB-971" value="" style="edgeStyle=orthogonalEdgeStyle;rounded=0;orthogonalLoop=1;jettySize=auto;html=1;" edge="1" parent="WIyWlLk6GJQsqaUBKTNV-1">
          <mxGeometry relative="1" as="geometry">
            <mxPoint x="-1120" y="-1600.5" as="sourcePoint" />
            <mxPoint x="-1130" y="-1600.5" as="targetPoint" />
            <Array as="points">
              <mxPoint x="-1090" y="-1600.5" />
              <mxPoint x="-1090" y="-1600.5" />
            </Array>
          </mxGeometry>
        </mxCell>
        <mxCell id="VUuJxfTxhFCesFp1tUoB-972" value="" style="edgeStyle=orthogonalEdgeStyle;rounded=0;orthogonalLoop=1;jettySize=auto;html=1;" edge="1" parent="WIyWlLk6GJQsqaUBKTNV-1">
          <mxGeometry relative="1" as="geometry">
            <mxPoint x="-1130" y="-1560" as="sourcePoint" />
            <mxPoint x="-1130" y="-1560" as="targetPoint" />
            <Array as="points">
              <mxPoint x="-1100" y="-1560" />
              <mxPoint x="-1100" y="-1560" />
            </Array>
          </mxGeometry>
        </mxCell>
        <mxCell id="VUuJxfTxhFCesFp1tUoB-973" value="To labrarians&#39; menu" style="rounded=0;whiteSpace=wrap;html=1;sketch=0;" vertex="1" parent="WIyWlLk6GJQsqaUBKTNV-1">
          <mxGeometry x="-1210" y="-1570" width="80" height="30" as="geometry" />
        </mxCell>
        <mxCell id="VUuJxfTxhFCesFp1tUoB-974" value="Exit" style="rounded=0;whiteSpace=wrap;html=1;sketch=0;" vertex="1" parent="WIyWlLk6GJQsqaUBKTNV-1">
          <mxGeometry x="-1210" y="-1610" width="80" height="20" as="geometry" />
        </mxCell>
        <mxCell id="VUuJxfTxhFCesFp1tUoB-975" value="" style="edgeStyle=orthogonalEdgeStyle;rounded=0;orthogonalLoop=1;jettySize=auto;html=1;exitX=0.5;exitY=1;exitDx=0;exitDy=0;" edge="1" parent="WIyWlLk6GJQsqaUBKTNV-1" source="VUuJxfTxhFCesFp1tUoB-973">
          <mxGeometry relative="1" as="geometry">
            <mxPoint x="-1250" y="-1560" as="sourcePoint" />
            <mxPoint x="-1170" y="-1420" as="targetPoint" />
            <Array as="points">
              <mxPoint x="-1170" y="-1430" />
            </Array>
          </mxGeometry>
        </mxCell>
        <mxCell id="VUuJxfTxhFCesFp1tUoB-976" value="To authors&#39; menu" style="rounded=0;whiteSpace=wrap;html=1;sketch=0;" vertex="1" parent="WIyWlLk6GJQsqaUBKTNV-1">
          <mxGeometry x="-1210" y="-1655" width="80" height="30" as="geometry" />
        </mxCell>
        <mxCell id="VUuJxfTxhFCesFp1tUoB-977" value="" style="edgeStyle=orthogonalEdgeStyle;rounded=0;orthogonalLoop=1;jettySize=auto;html=1;" edge="1" parent="WIyWlLk6GJQsqaUBKTNV-1">
          <mxGeometry relative="1" as="geometry">
            <mxPoint x="-1080" y="-1630" as="sourcePoint" />
            <mxPoint x="-1090" y="-1630" as="targetPoint" />
            <Array as="points">
              <mxPoint x="-1070" y="-1630" />
              <mxPoint x="-1070" y="-1630" />
            </Array>
          </mxGeometry>
        </mxCell>
        <mxCell id="VUuJxfTxhFCesFp1tUoB-978" value="" style="edgeStyle=orthogonalEdgeStyle;rounded=0;orthogonalLoop=1;jettySize=auto;html=1;" edge="1" parent="WIyWlLk6GJQsqaUBKTNV-1">
          <mxGeometry relative="1" as="geometry">
            <mxPoint x="-1080" y="-1600" as="sourcePoint" />
            <mxPoint x="-1090" y="-1600" as="targetPoint" />
            <Array as="points">
              <mxPoint x="-1070" y="-1600" />
              <mxPoint x="-1070" y="-1600" />
            </Array>
          </mxGeometry>
        </mxCell>
        <mxCell id="VUuJxfTxhFCesFp1tUoB-979" value="" style="edgeStyle=orthogonalEdgeStyle;rounded=0;orthogonalLoop=1;jettySize=auto;html=1;" edge="1" parent="WIyWlLk6GJQsqaUBKTNV-1">
          <mxGeometry relative="1" as="geometry">
            <mxPoint x="-1080" y="-1570" as="sourcePoint" />
            <mxPoint x="-1090" y="-1570" as="targetPoint" />
            <Array as="points">
              <mxPoint x="-1070" y="-1570" />
              <mxPoint x="-1070" y="-1570" />
            </Array>
          </mxGeometry>
        </mxCell>
        <mxCell id="VUuJxfTxhFCesFp1tUoB-980" style="edgeStyle=none;rounded=1;sketch=0;orthogonalLoop=1;jettySize=auto;html=1;entryX=0;entryY=0.5;entryDx=0;entryDy=0;" edge="1" parent="WIyWlLk6GJQsqaUBKTNV-1">
          <mxGeometry relative="1" as="geometry">
            <mxPoint x="-1070" y="-1540" as="sourcePoint" />
            <mxPoint x="-1070" y="-1540" as="targetPoint" />
          </mxGeometry>
        </mxCell>
        <mxCell id="VUuJxfTxhFCesFp1tUoB-981" value="" style="edgeStyle=orthogonalEdgeStyle;rounded=0;orthogonalLoop=1;jettySize=auto;html=1;entryX=0;entryY=0.5;entryDx=0;entryDy=0;exitX=0.5;exitY=0;exitDx=0;exitDy=0;" edge="1" parent="WIyWlLk6GJQsqaUBKTNV-1" source="VUuJxfTxhFCesFp1tUoB-976" target="VUuJxfTxhFCesFp1tUoB-901">
          <mxGeometry relative="1" as="geometry">
            <mxPoint x="-1130" y="-1650" as="sourcePoint" />
            <mxPoint x="-1080" y="-1780" as="targetPoint" />
            <Array as="points">
              <mxPoint x="-1170" y="-1735" />
            </Array>
          </mxGeometry>
        </mxCell>
        <mxCell id="VUuJxfTxhFCesFp1tUoB-982" value="" style="edgeStyle=orthogonalEdgeStyle;rounded=0;orthogonalLoop=1;jettySize=auto;html=1;exitX=0.75;exitY=1;exitDx=0;exitDy=0;" edge="1" parent="WIyWlLk6GJQsqaUBKTNV-1" source="VUuJxfTxhFCesFp1tUoB-901">
          <mxGeometry relative="1" as="geometry">
            <mxPoint x="-970" y="-1640" as="sourcePoint" />
            <mxPoint x="-990" y="-1500" as="targetPoint" />
            <Array as="points">
              <mxPoint x="-970" y="-1720" />
              <mxPoint x="-970" y="-1500" />
            </Array>
          </mxGeometry>
        </mxCell>
        <mxCell id="VUuJxfTxhFCesFp1tUoB-983" value="" style="edgeStyle=orthogonalEdgeStyle;rounded=0;orthogonalLoop=1;jettySize=auto;html=1;" edge="1" parent="WIyWlLk6GJQsqaUBKTNV-1">
          <mxGeometry relative="1" as="geometry">
            <mxPoint x="-970" y="-1540" as="sourcePoint" />
            <mxPoint x="-990" y="-1540" as="targetPoint" />
            <Array as="points">
              <mxPoint x="-990" y="-1540" />
              <mxPoint x="-990" y="-1540" />
            </Array>
          </mxGeometry>
        </mxCell>
        <mxCell id="VUuJxfTxhFCesFp1tUoB-984" value="" style="edgeStyle=orthogonalEdgeStyle;rounded=0;orthogonalLoop=1;jettySize=auto;html=1;entryX=1;entryY=0.5;entryDx=0;entryDy=0;" edge="1" parent="WIyWlLk6GJQsqaUBKTNV-1" target="VUuJxfTxhFCesFp1tUoB-960">
          <mxGeometry relative="1" as="geometry">
            <mxPoint x="-970" y="-1570" as="sourcePoint" />
            <mxPoint x="-980" y="-1570" as="targetPoint" />
            <Array as="points" />
          </mxGeometry>
        </mxCell>
        <mxCell id="VUuJxfTxhFCesFp1tUoB-985" value="" style="edgeStyle=orthogonalEdgeStyle;rounded=0;orthogonalLoop=1;jettySize=auto;html=1;" edge="1" parent="WIyWlLk6GJQsqaUBKTNV-1">
          <mxGeometry relative="1" as="geometry">
            <mxPoint x="-980" y="-1600" as="sourcePoint" />
            <mxPoint x="-990" y="-1600" as="targetPoint" />
            <Array as="points">
              <mxPoint x="-970" y="-1600" />
              <mxPoint x="-970" y="-1600" />
            </Array>
          </mxGeometry>
        </mxCell>
        <mxCell id="VUuJxfTxhFCesFp1tUoB-986" value="" style="edgeStyle=orthogonalEdgeStyle;rounded=0;orthogonalLoop=1;jettySize=auto;html=1;" edge="1" parent="WIyWlLk6GJQsqaUBKTNV-1">
          <mxGeometry relative="1" as="geometry">
            <mxPoint x="-970" y="-1630" as="sourcePoint" />
            <mxPoint x="-990" y="-1630" as="targetPoint" />
            <Array as="points">
              <mxPoint x="-990" y="-1630" />
              <mxPoint x="-990" y="-1630" />
            </Array>
          </mxGeometry>
        </mxCell>
        <mxCell id="VUuJxfTxhFCesFp1tUoB-987" value="" style="edgeStyle=orthogonalEdgeStyle;rounded=0;orthogonalLoop=1;jettySize=auto;html=1;entryX=1;entryY=0.5;entryDx=0;entryDy=0;" edge="1" parent="WIyWlLk6GJQsqaUBKTNV-1" target="VUuJxfTxhFCesFp1tUoB-958">
          <mxGeometry relative="1" as="geometry">
            <mxPoint x="-970" y="-1660" as="sourcePoint" />
            <mxPoint x="-980" y="-1660" as="targetPoint" />
            <Array as="points" />
          </mxGeometry>
        </mxCell>
        <mxCell id="VUuJxfTxhFCesFp1tUoB-988" value="" style="edgeStyle=orthogonalEdgeStyle;rounded=0;orthogonalLoop=1;jettySize=auto;html=1;" edge="1" parent="WIyWlLk6GJQsqaUBKTNV-1">
          <mxGeometry relative="1" as="geometry">
            <mxPoint x="-970" y="-1680" as="sourcePoint" />
            <mxPoint x="-990" y="-1690" as="targetPoint" />
            <Array as="points">
              <mxPoint x="-990" y="-1690" />
              <mxPoint x="-990" y="-1690" />
            </Array>
          </mxGeometry>
        </mxCell>
        <mxCell id="VUuJxfTxhFCesFp1tUoB-989" value="" style="edgeStyle=orthogonalEdgeStyle;rounded=0;orthogonalLoop=1;jettySize=auto;html=1;entryX=0.5;entryY=0;entryDx=0;entryDy=0;exitX=0.5;exitY=1;exitDx=0;exitDy=0;" edge="1" parent="WIyWlLk6GJQsqaUBKTNV-1" source="VUuJxfTxhFCesFp1tUoB-891" target="VUuJxfTxhFCesFp1tUoB-899">
          <mxGeometry relative="1" as="geometry">
            <mxPoint x="-790" y="-2090" as="sourcePoint" />
            <mxPoint x="-790" y="-2050" as="targetPoint" />
            <Array as="points" />
          </mxGeometry>
        </mxCell>
        <mxCell id="VUuJxfTxhFCesFp1tUoB-990" style="edgeStyle=none;rounded=1;sketch=0;orthogonalLoop=1;jettySize=auto;html=1;" edge="1" parent="WIyWlLk6GJQsqaUBKTNV-1">
          <mxGeometry relative="1" as="geometry">
            <mxPoint x="-900" y="-1660.5" as="targetPoint" />
            <mxPoint x="-920" y="-1660" as="sourcePoint" />
          </mxGeometry>
        </mxCell>
        <mxCell id="VUuJxfTxhFCesFp1tUoB-991" style="edgeStyle=none;rounded=1;sketch=0;orthogonalLoop=1;jettySize=auto;html=1;" edge="1" parent="WIyWlLk6GJQsqaUBKTNV-1">
          <mxGeometry relative="1" as="geometry">
            <mxPoint x="-900" y="-1630" as="targetPoint" />
            <mxPoint x="-920" y="-1630" as="sourcePoint" />
          </mxGeometry>
        </mxCell>
        <mxCell id="VUuJxfTxhFCesFp1tUoB-992" style="edgeStyle=none;rounded=1;sketch=0;orthogonalLoop=1;jettySize=auto;html=1;" edge="1" parent="WIyWlLk6GJQsqaUBKTNV-1">
          <mxGeometry relative="1" as="geometry">
            <mxPoint x="-900" y="-1600" as="targetPoint" />
            <mxPoint x="-920" y="-1600" as="sourcePoint" />
          </mxGeometry>
        </mxCell>
        <mxCell id="VUuJxfTxhFCesFp1tUoB-993" value="To labrarians&#39; menu" style="rounded=0;whiteSpace=wrap;html=1;sketch=0;" vertex="1" parent="WIyWlLk6GJQsqaUBKTNV-1">
          <mxGeometry x="-751" y="-1570" width="80" height="30" as="geometry" />
        </mxCell>
        <mxCell id="VUuJxfTxhFCesFp1tUoB-994" value="Exit" style="rounded=0;whiteSpace=wrap;html=1;sketch=0;" vertex="1" parent="WIyWlLk6GJQsqaUBKTNV-1">
          <mxGeometry x="-756" y="-1610" width="80" height="20" as="geometry" />
        </mxCell>
        <mxCell id="VUuJxfTxhFCesFp1tUoB-995" value="To users&#39; menu" style="rounded=0;whiteSpace=wrap;html=1;sketch=0;" vertex="1" parent="WIyWlLk6GJQsqaUBKTNV-1">
          <mxGeometry x="-751" y="-1655" width="80" height="30" as="geometry" />
        </mxCell>
        <mxCell id="VUuJxfTxhFCesFp1tUoB-996" value="" style="endArrow=none;html=1;rounded=1;sketch=0;curved=0;entryX=1;entryY=0.5;entryDx=0;entryDy=0;exitX=1;exitY=0.5;exitDx=0;exitDy=0;" edge="1" parent="WIyWlLk6GJQsqaUBKTNV-1" source="VUuJxfTxhFCesFp1tUoB-951" target="VUuJxfTxhFCesFp1tUoB-913">
          <mxGeometry width="50" height="50" relative="1" as="geometry">
            <mxPoint x="-760" y="-1500" as="sourcePoint" />
            <mxPoint x="-760" y="-1680" as="targetPoint" />
            <Array as="points">
              <mxPoint x="-800" y="-1510" />
              <mxPoint x="-800" y="-1590" />
              <mxPoint x="-800" y="-1690" />
            </Array>
          </mxGeometry>
        </mxCell>
        <mxCell id="VUuJxfTxhFCesFp1tUoB-997" style="edgeStyle=none;rounded=1;sketch=0;orthogonalLoop=1;jettySize=auto;html=1;exitX=1;exitY=0.5;exitDx=0;exitDy=0;" edge="1" parent="WIyWlLk6GJQsqaUBKTNV-1" source="VUuJxfTxhFCesFp1tUoB-912">
          <mxGeometry relative="1" as="geometry">
            <mxPoint x="-800" y="-1660" as="targetPoint" />
            <mxPoint x="-810" y="-1660" as="sourcePoint" />
          </mxGeometry>
        </mxCell>
        <mxCell id="VUuJxfTxhFCesFp1tUoB-998" style="edgeStyle=none;rounded=1;sketch=0;orthogonalLoop=1;jettySize=auto;html=1;" edge="1" parent="WIyWlLk6GJQsqaUBKTNV-1">
          <mxGeometry relative="1" as="geometry">
            <mxPoint x="-800" y="-1630" as="targetPoint" />
            <mxPoint x="-810" y="-1630" as="sourcePoint" />
            <Array as="points">
              <mxPoint x="-820" y="-1630" />
            </Array>
          </mxGeometry>
        </mxCell>
        <mxCell id="VUuJxfTxhFCesFp1tUoB-999" style="edgeStyle=none;rounded=1;sketch=0;orthogonalLoop=1;jettySize=auto;html=1;" edge="1" parent="WIyWlLk6GJQsqaUBKTNV-1">
          <mxGeometry relative="1" as="geometry">
            <mxPoint x="-800" y="-1600" as="targetPoint" />
            <mxPoint x="-820" y="-1600" as="sourcePoint" />
            <Array as="points">
              <mxPoint x="-820" y="-1600" />
            </Array>
          </mxGeometry>
        </mxCell>
        <mxCell id="VUuJxfTxhFCesFp1tUoB-1000" style="edgeStyle=none;rounded=1;sketch=0;orthogonalLoop=1;jettySize=auto;html=1;" edge="1" parent="WIyWlLk6GJQsqaUBKTNV-1">
          <mxGeometry relative="1" as="geometry">
            <mxPoint x="-799" y="-1570" as="targetPoint" />
            <mxPoint x="-820" y="-1570" as="sourcePoint" />
          </mxGeometry>
        </mxCell>
        <mxCell id="VUuJxfTxhFCesFp1tUoB-1001" style="edgeStyle=none;rounded=1;sketch=0;orthogonalLoop=1;jettySize=auto;html=1;" edge="1" parent="WIyWlLk6GJQsqaUBKTNV-1">
          <mxGeometry relative="1" as="geometry">
            <mxPoint x="-799" y="-1540" as="targetPoint" />
            <mxPoint x="-820" y="-1540" as="sourcePoint" />
          </mxGeometry>
        </mxCell>
        <mxCell id="VUuJxfTxhFCesFp1tUoB-1002" style="edgeStyle=none;rounded=1;sketch=0;orthogonalLoop=1;jettySize=auto;html=1;" edge="1" parent="WIyWlLk6GJQsqaUBKTNV-1">
          <mxGeometry relative="1" as="geometry">
            <mxPoint x="-750" y="-1600" as="targetPoint" />
            <mxPoint x="-790" y="-1600.5" as="sourcePoint" />
            <Array as="points">
              <mxPoint x="-800" y="-1600" />
              <mxPoint x="-780" y="-1600" />
            </Array>
          </mxGeometry>
        </mxCell>
        <mxCell id="VUuJxfTxhFCesFp1tUoB-1003" value="" style="endArrow=none;html=1;rounded=1;sketch=0;" edge="1" parent="WIyWlLk6GJQsqaUBKTNV-1">
          <mxGeometry width="50" height="50" relative="1" as="geometry">
            <mxPoint x="-780" y="-1550" as="sourcePoint" />
            <mxPoint x="-780" y="-1640" as="targetPoint" />
          </mxGeometry>
        </mxCell>
        <mxCell id="VUuJxfTxhFCesFp1tUoB-1004" value="" style="edgeStyle=orthogonalEdgeStyle;rounded=0;orthogonalLoop=1;jettySize=auto;html=1;" edge="1" parent="WIyWlLk6GJQsqaUBKTNV-1">
          <mxGeometry relative="1" as="geometry">
            <mxPoint x="-780" y="-1550" as="sourcePoint" />
            <mxPoint x="-750" y="-1550" as="targetPoint" />
            <Array as="points">
              <mxPoint x="-770" y="-1550" />
              <mxPoint x="-770" y="-1550" />
            </Array>
          </mxGeometry>
        </mxCell>
        <mxCell id="VUuJxfTxhFCesFp1tUoB-1005" value="" style="edgeStyle=orthogonalEdgeStyle;rounded=0;orthogonalLoop=1;jettySize=auto;html=1;" edge="1" parent="WIyWlLk6GJQsqaUBKTNV-1">
          <mxGeometry relative="1" as="geometry">
            <mxPoint x="-770" y="-1640" as="sourcePoint" />
            <mxPoint x="-750" y="-1640" as="targetPoint" />
            <Array as="points">
              <mxPoint x="-780" y="-1640" />
              <mxPoint x="-780" y="-1640" />
            </Array>
          </mxGeometry>
        </mxCell>
        <mxCell id="VUuJxfTxhFCesFp1tUoB-1006" value="" style="edgeStyle=orthogonalEdgeStyle;rounded=0;orthogonalLoop=1;jettySize=auto;html=1;exitX=0.5;exitY=1;exitDx=0;exitDy=0;" edge="1" parent="WIyWlLk6GJQsqaUBKTNV-1" source="VUuJxfTxhFCesFp1tUoB-993">
          <mxGeometry relative="1" as="geometry">
            <mxPoint x="-710" y="-1530" as="sourcePoint" />
            <mxPoint x="-710" y="-1420" as="targetPoint" />
            <Array as="points">
              <mxPoint x="-710" y="-1540" />
            </Array>
          </mxGeometry>
        </mxCell>
        <mxCell id="VUuJxfTxhFCesFp1tUoB-1007" value="Delete" style="rounded=0;whiteSpace=wrap;html=1;sketch=0;" vertex="1" parent="WIyWlLk6GJQsqaUBKTNV-1">
          <mxGeometry x="-619" y="-1675" width="80" height="20" as="geometry" />
        </mxCell>
        <mxCell id="VUuJxfTxhFCesFp1tUoB-1008" value="Add" style="rounded=0;whiteSpace=wrap;html=1;sketch=0;" vertex="1" parent="WIyWlLk6GJQsqaUBKTNV-1">
          <mxGeometry x="-619" y="-1705" width="80" height="20" as="geometry" />
        </mxCell>
        <mxCell id="VUuJxfTxhFCesFp1tUoB-1009" value="Update info" style="rounded=0;whiteSpace=wrap;html=1;sketch=0;" vertex="1" parent="WIyWlLk6GJQsqaUBKTNV-1">
          <mxGeometry x="-619" y="-1645" width="80" height="20" as="geometry" />
        </mxCell>
        <mxCell id="VUuJxfTxhFCesFp1tUoB-1010" value="" style="endArrow=none;html=1;rounded=1;sketch=0;curved=0;" edge="1" parent="WIyWlLk6GJQsqaUBKTNV-1">
          <mxGeometry width="50" height="50" relative="1" as="geometry">
            <mxPoint x="-639" y="-1720" as="sourcePoint" />
            <mxPoint x="-639" y="-1480" as="targetPoint" />
          </mxGeometry>
        </mxCell>
        <mxCell id="VUuJxfTxhFCesFp1tUoB-1011" style="edgeStyle=none;rounded=1;sketch=0;orthogonalLoop=1;jettySize=auto;html=1;entryX=1;entryY=0.75;entryDx=0;entryDy=0;" edge="1" parent="WIyWlLk6GJQsqaUBKTNV-1" source="VUuJxfTxhFCesFp1tUoB-1007" target="VUuJxfTxhFCesFp1tUoB-1007">
          <mxGeometry relative="1" as="geometry" />
        </mxCell>
        <mxCell id="VUuJxfTxhFCesFp1tUoB-1012" value="Show all" style="rounded=0;whiteSpace=wrap;html=1;sketch=0;" vertex="1" parent="WIyWlLk6GJQsqaUBKTNV-1">
          <mxGeometry x="-619" y="-1615" width="80" height="20" as="geometry" />
        </mxCell>
        <mxCell id="VUuJxfTxhFCesFp1tUoB-1013" style="edgeStyle=none;rounded=1;sketch=0;orthogonalLoop=1;jettySize=auto;html=1;" edge="1" parent="WIyWlLk6GJQsqaUBKTNV-1">
          <mxGeometry relative="1" as="geometry">
            <mxPoint x="-619" y="-1575" as="targetPoint" />
            <mxPoint x="-640" y="-1575" as="sourcePoint" />
          </mxGeometry>
        </mxCell>
        <mxCell id="VUuJxfTxhFCesFp1tUoB-1014" value="Find by user" style="rounded=0;whiteSpace=wrap;html=1;sketch=0;" vertex="1" parent="WIyWlLk6GJQsqaUBKTNV-1">
          <mxGeometry x="-619" y="-1585" width="80" height="20" as="geometry" />
        </mxCell>
        <mxCell id="VUuJxfTxhFCesFp1tUoB-1015" value="Find by ID" style="rounded=0;whiteSpace=wrap;html=1;sketch=0;" vertex="1" parent="WIyWlLk6GJQsqaUBKTNV-1">
          <mxGeometry x="-619" y="-1555" width="80" height="20" as="geometry" />
        </mxCell>
        <mxCell id="VUuJxfTxhFCesFp1tUoB-1016" style="edgeStyle=none;rounded=1;sketch=0;orthogonalLoop=1;jettySize=auto;html=1;" edge="1" parent="WIyWlLk6GJQsqaUBKTNV-1">
          <mxGeometry relative="1" as="geometry">
            <mxPoint x="-619" y="-1545" as="targetPoint" />
            <mxPoint x="-640" y="-1545" as="sourcePoint" />
          </mxGeometry>
        </mxCell>
        <mxCell id="VUuJxfTxhFCesFp1tUoB-1017" style="edgeStyle=none;rounded=1;sketch=0;orthogonalLoop=1;jettySize=auto;html=1;" edge="1" parent="WIyWlLk6GJQsqaUBKTNV-1">
          <mxGeometry relative="1" as="geometry">
            <mxPoint x="-619" y="-1695.5" as="targetPoint" />
            <mxPoint x="-639" y="-1695" as="sourcePoint" />
          </mxGeometry>
        </mxCell>
        <mxCell id="VUuJxfTxhFCesFp1tUoB-1018" value="Find by book" style="rounded=0;whiteSpace=wrap;html=1;sketch=0;" vertex="1" parent="WIyWlLk6GJQsqaUBKTNV-1">
          <mxGeometry x="-619" y="-1525" width="80" height="20" as="geometry" />
        </mxCell>
        <mxCell id="VUuJxfTxhFCesFp1tUoB-1019" style="edgeStyle=none;rounded=1;sketch=0;orthogonalLoop=1;jettySize=auto;html=1;" edge="1" parent="WIyWlLk6GJQsqaUBKTNV-1">
          <mxGeometry relative="1" as="geometry">
            <mxPoint x="-619" y="-1515" as="targetPoint" />
            <mxPoint x="-640" y="-1515" as="sourcePoint" />
          </mxGeometry>
        </mxCell>
        <mxCell id="VUuJxfTxhFCesFp1tUoB-1020" value="To orders&#39; menu" style="rounded=0;whiteSpace=wrap;html=1;sketch=0;" vertex="1" parent="WIyWlLk6GJQsqaUBKTNV-1">
          <mxGeometry x="-619" y="-1495" width="80" height="30" as="geometry" />
        </mxCell>
        <mxCell id="VUuJxfTxhFCesFp1tUoB-1021" style="edgeStyle=none;rounded=1;sketch=0;orthogonalLoop=1;jettySize=auto;html=1;" edge="1" parent="WIyWlLk6GJQsqaUBKTNV-1">
          <mxGeometry relative="1" as="geometry">
            <mxPoint x="-619" y="-1480.5" as="targetPoint" />
            <mxPoint x="-639" y="-1480" as="sourcePoint" />
          </mxGeometry>
        </mxCell>
        <mxCell id="VUuJxfTxhFCesFp1tUoB-1022" value="" style="edgeStyle=orthogonalEdgeStyle;rounded=0;orthogonalLoop=1;jettySize=auto;html=1;exitX=0.5;exitY=1;exitDx=0;exitDy=0;" edge="1" parent="WIyWlLk6GJQsqaUBKTNV-1" source="VUuJxfTxhFCesFp1tUoB-1020">
          <mxGeometry relative="1" as="geometry">
            <mxPoint x="-539" y="-1455" as="sourcePoint" />
            <mxPoint x="-579" y="-1420" as="targetPoint" />
            <Array as="points" />
          </mxGeometry>
        </mxCell>
        <mxCell id="VUuJxfTxhFCesFp1tUoB-1023" style="edgeStyle=none;rounded=1;sketch=0;orthogonalLoop=1;jettySize=auto;html=1;" edge="1" parent="WIyWlLk6GJQsqaUBKTNV-1">
          <mxGeometry relative="1" as="geometry">
            <mxPoint x="-619" y="-1665.5" as="targetPoint" />
            <mxPoint x="-639" y="-1665" as="sourcePoint" />
          </mxGeometry>
        </mxCell>
        <mxCell id="VUuJxfTxhFCesFp1tUoB-1024" style="edgeStyle=none;rounded=1;sketch=0;orthogonalLoop=1;jettySize=auto;html=1;" edge="1" parent="WIyWlLk6GJQsqaUBKTNV-1">
          <mxGeometry relative="1" as="geometry">
            <mxPoint x="-619" y="-1635" as="targetPoint" />
            <mxPoint x="-639" y="-1635" as="sourcePoint" />
          </mxGeometry>
        </mxCell>
        <mxCell id="VUuJxfTxhFCesFp1tUoB-1025" style="edgeStyle=none;rounded=1;sketch=0;orthogonalLoop=1;jettySize=auto;html=1;" edge="1" parent="WIyWlLk6GJQsqaUBKTNV-1">
          <mxGeometry relative="1" as="geometry">
            <mxPoint x="-619" y="-1605" as="targetPoint" />
            <mxPoint x="-639" y="-1605" as="sourcePoint" />
          </mxGeometry>
        </mxCell>
        <mxCell id="VUuJxfTxhFCesFp1tUoB-1026" value="To labrarians&#39; menu" style="rounded=0;whiteSpace=wrap;html=1;sketch=0;" vertex="1" parent="WIyWlLk6GJQsqaUBKTNV-1">
          <mxGeometry x="-470" y="-1580" width="80" height="30" as="geometry" />
        </mxCell>
        <mxCell id="VUuJxfTxhFCesFp1tUoB-1027" value="Exit" style="rounded=0;whiteSpace=wrap;html=1;sketch=0;" vertex="1" parent="WIyWlLk6GJQsqaUBKTNV-1">
          <mxGeometry x="-470" y="-1615" width="80" height="20" as="geometry" />
        </mxCell>
        <mxCell id="VUuJxfTxhFCesFp1tUoB-1028" value="To orders&#39; menu" style="rounded=0;whiteSpace=wrap;html=1;sketch=0;" vertex="1" parent="WIyWlLk6GJQsqaUBKTNV-1">
          <mxGeometry x="-470" y="-1660" width="80" height="30" as="geometry" />
        </mxCell>
        <mxCell id="VUuJxfTxhFCesFp1tUoB-1029" value="" style="endArrow=none;html=1;rounded=1;sketch=0;curved=0;entryX=1;entryY=0.5;entryDx=0;entryDy=0;exitX=1;exitY=0.5;exitDx=0;exitDy=0;" edge="1" parent="WIyWlLk6GJQsqaUBKTNV-1" source="VUuJxfTxhFCesFp1tUoB-1018" target="VUuJxfTxhFCesFp1tUoB-1008">
          <mxGeometry width="50" height="50" relative="1" as="geometry">
            <mxPoint x="-479" y="-1505" as="sourcePoint" />
            <mxPoint x="-479" y="-1685" as="targetPoint" />
            <Array as="points">
              <mxPoint x="-519" y="-1515" />
              <mxPoint x="-519" y="-1595" />
              <mxPoint x="-519" y="-1695" />
            </Array>
          </mxGeometry>
        </mxCell>
        <mxCell id="VUuJxfTxhFCesFp1tUoB-1030" style="edgeStyle=none;rounded=1;sketch=0;orthogonalLoop=1;jettySize=auto;html=1;exitX=1;exitY=0.5;exitDx=0;exitDy=0;" edge="1" parent="WIyWlLk6GJQsqaUBKTNV-1" source="VUuJxfTxhFCesFp1tUoB-1007">
          <mxGeometry relative="1" as="geometry">
            <mxPoint x="-519" y="-1665" as="targetPoint" />
            <mxPoint x="-529" y="-1665" as="sourcePoint" />
          </mxGeometry>
        </mxCell>
        <mxCell id="VUuJxfTxhFCesFp1tUoB-1031" style="edgeStyle=none;rounded=1;sketch=0;orthogonalLoop=1;jettySize=auto;html=1;" edge="1" parent="WIyWlLk6GJQsqaUBKTNV-1">
          <mxGeometry relative="1" as="geometry">
            <mxPoint x="-519" y="-1635" as="targetPoint" />
            <mxPoint x="-529" y="-1635" as="sourcePoint" />
            <Array as="points">
              <mxPoint x="-539" y="-1635" />
            </Array>
          </mxGeometry>
        </mxCell>
        <mxCell id="VUuJxfTxhFCesFp1tUoB-1032" style="edgeStyle=none;rounded=1;sketch=0;orthogonalLoop=1;jettySize=auto;html=1;" edge="1" parent="WIyWlLk6GJQsqaUBKTNV-1">
          <mxGeometry relative="1" as="geometry">
            <mxPoint x="-519" y="-1605" as="targetPoint" />
            <mxPoint x="-539" y="-1605" as="sourcePoint" />
            <Array as="points">
              <mxPoint x="-539" y="-1605" />
            </Array>
          </mxGeometry>
        </mxCell>
        <mxCell id="VUuJxfTxhFCesFp1tUoB-1033" style="edgeStyle=none;rounded=1;sketch=0;orthogonalLoop=1;jettySize=auto;html=1;" edge="1" parent="WIyWlLk6GJQsqaUBKTNV-1">
          <mxGeometry relative="1" as="geometry">
            <mxPoint x="-518" y="-1575" as="targetPoint" />
            <mxPoint x="-539" y="-1575" as="sourcePoint" />
          </mxGeometry>
        </mxCell>
        <mxCell id="VUuJxfTxhFCesFp1tUoB-1034" style="edgeStyle=none;rounded=1;sketch=0;orthogonalLoop=1;jettySize=auto;html=1;" edge="1" parent="WIyWlLk6GJQsqaUBKTNV-1">
          <mxGeometry relative="1" as="geometry">
            <mxPoint x="-518" y="-1545" as="targetPoint" />
            <mxPoint x="-539" y="-1545" as="sourcePoint" />
          </mxGeometry>
        </mxCell>
        <mxCell id="VUuJxfTxhFCesFp1tUoB-1035" style="edgeStyle=none;rounded=1;sketch=0;orthogonalLoop=1;jettySize=auto;html=1;" edge="1" parent="WIyWlLk6GJQsqaUBKTNV-1">
          <mxGeometry relative="1" as="geometry">
            <mxPoint x="-469" y="-1605" as="targetPoint" />
            <mxPoint x="-509" y="-1605.5" as="sourcePoint" />
            <Array as="points">
              <mxPoint x="-519" y="-1605" />
              <mxPoint x="-499" y="-1605" />
            </Array>
          </mxGeometry>
        </mxCell>
        <mxCell id="VUuJxfTxhFCesFp1tUoB-1036" value="" style="endArrow=none;html=1;rounded=1;sketch=0;" edge="1" parent="WIyWlLk6GJQsqaUBKTNV-1">
          <mxGeometry width="50" height="50" relative="1" as="geometry">
            <mxPoint x="-499" y="-1560" as="sourcePoint" />
            <mxPoint x="-499" y="-1645" as="targetPoint" />
          </mxGeometry>
        </mxCell>
        <mxCell id="VUuJxfTxhFCesFp1tUoB-1037" value="" style="edgeStyle=orthogonalEdgeStyle;rounded=0;orthogonalLoop=1;jettySize=auto;html=1;" edge="1" parent="WIyWlLk6GJQsqaUBKTNV-1">
          <mxGeometry relative="1" as="geometry">
            <mxPoint x="-489" y="-1645" as="sourcePoint" />
            <mxPoint x="-469" y="-1645" as="targetPoint" />
            <Array as="points">
              <mxPoint x="-499" y="-1645" />
              <mxPoint x="-499" y="-1645" />
            </Array>
          </mxGeometry>
        </mxCell>
        <mxCell id="VUuJxfTxhFCesFp1tUoB-1038" value="" style="edgeStyle=orthogonalEdgeStyle;rounded=0;orthogonalLoop=1;jettySize=auto;html=1;exitX=0.5;exitY=1;exitDx=0;exitDy=0;" edge="1" parent="WIyWlLk6GJQsqaUBKTNV-1">
          <mxGeometry relative="1" as="geometry">
            <mxPoint x="-430" y="-1545" as="sourcePoint" />
            <mxPoint x="-429" y="-1420" as="targetPoint" />
            <Array as="points">
              <mxPoint x="-429" y="-1545" />
            </Array>
          </mxGeometry>
        </mxCell>
        <mxCell id="VUuJxfTxhFCesFp1tUoB-1039" value="" style="edgeStyle=orthogonalEdgeStyle;rounded=0;orthogonalLoop=1;jettySize=auto;html=1;exitX=0.5;exitY=0;exitDx=0;exitDy=0;" edge="1" parent="WIyWlLk6GJQsqaUBKTNV-1" source="VUuJxfTxhFCesFp1tUoB-995">
          <mxGeometry relative="1" as="geometry">
            <mxPoint x="-770" y="-1720" as="sourcePoint" />
            <mxPoint x="-850" y="-1735" as="targetPoint" />
            <Array as="points">
              <mxPoint x="-711" y="-1735" />
              <mxPoint x="-850" y="-1735" />
            </Array>
          </mxGeometry>
        </mxCell>
        <mxCell id="VUuJxfTxhFCesFp1tUoB-1040" value="" style="edgeStyle=orthogonalEdgeStyle;rounded=0;orthogonalLoop=1;jettySize=auto;html=1;exitX=0.5;exitY=0;exitDx=0;exitDy=0;" edge="1" parent="WIyWlLk6GJQsqaUBKTNV-1">
          <mxGeometry relative="1" as="geometry">
            <mxPoint x="-431" y="-1660" as="sourcePoint" />
            <mxPoint x="-570" y="-1740" as="targetPoint" />
            <Array as="points">
              <mxPoint x="-431" y="-1740" />
              <mxPoint x="-570" y="-1740" />
            </Array>
          </mxGeometry>
        </mxCell>
        <mxCell id="VUuJxfTxhFCesFp1tUoB-1041" value="Find a book by author" style="whiteSpace=wrap;html=1;rounded=1;shadow=0;strokeWidth=1;glass=0;" vertex="1" parent="WIyWlLk6GJQsqaUBKTNV-1">
          <mxGeometry x="-671" y="-2030" width="80" height="40" as="geometry" />
        </mxCell>
        <mxCell id="VUuJxfTxhFCesFp1tUoB-1042" style="edgeStyle=none;rounded=1;sketch=0;orthogonalLoop=1;jettySize=auto;html=1;exitX=0;exitY=1;exitDx=0;exitDy=0;" edge="1" parent="WIyWlLk6GJQsqaUBKTNV-1">
          <mxGeometry relative="1" as="geometry">
            <mxPoint x="-620" y="-1930" as="sourcePoint" />
            <mxPoint x="-620" y="-1930" as="targetPoint" />
          </mxGeometry>
        </mxCell>
        <mxCell id="VUuJxfTxhFCesFp1tUoB-1043" value="Show all books" style="whiteSpace=wrap;html=1;rounded=1;shadow=0;strokeWidth=1;glass=0;" vertex="1" parent="WIyWlLk6GJQsqaUBKTNV-1">
          <mxGeometry x="-671" y="-2180" width="80" height="40" as="geometry" />
        </mxCell>
        <mxCell id="VUuJxfTxhFCesFp1tUoB-1044" value="Find a book by title" style="whiteSpace=wrap;html=1;rounded=1;shadow=0;strokeWidth=1;glass=0;" vertex="1" parent="WIyWlLk6GJQsqaUBKTNV-1">
          <mxGeometry x="-671" y="-2130" width="80" height="40" as="geometry" />
        </mxCell>
        <mxCell id="VUuJxfTxhFCesFp1tUoB-1045" value="Find a book by author" style="whiteSpace=wrap;html=1;rounded=1;shadow=0;strokeWidth=1;glass=0;" vertex="1" parent="WIyWlLk6GJQsqaUBKTNV-1">
          <mxGeometry x="-671" y="-2080" width="80" height="40" as="geometry" />
        </mxCell>
        <mxCell id="VUuJxfTxhFCesFp1tUoB-1046" value="Show client&#39;s orders" style="whiteSpace=wrap;html=1;rounded=1;shadow=0;strokeWidth=1;glass=0;" vertex="1" parent="WIyWlLk6GJQsqaUBKTNV-1">
          <mxGeometry x="-671" y="-1930" width="80" height="40" as="geometry" />
        </mxCell>
        <mxCell id="VUuJxfTxhFCesFp1tUoB-1047" value="Update clients info" style="whiteSpace=wrap;html=1;rounded=1;shadow=0;strokeWidth=1;glass=0;" vertex="1" parent="WIyWlLk6GJQsqaUBKTNV-1">
          <mxGeometry x="-671" y="-1980" width="80" height="40" as="geometry" />
        </mxCell>
        <mxCell id="VUuJxfTxhFCesFp1tUoB-1048" value="Make reservation" style="whiteSpace=wrap;html=1;rounded=1;shadow=0;strokeWidth=1;glass=0;" vertex="1" parent="WIyWlLk6GJQsqaUBKTNV-1">
          <mxGeometry x="-671" y="-1880" width="80" height="40" as="geometry" />
        </mxCell>
        <mxCell id="VUuJxfTxhFCesFp1tUoB-1049" value="" style="endArrow=none;html=1;rounded=1;sketch=0;curved=0;" edge="1" parent="WIyWlLk6GJQsqaUBKTNV-1">
          <mxGeometry width="50" height="50" relative="1" as="geometry">
            <mxPoint x="-690" y="-2160" as="sourcePoint" />
            <mxPoint x="-690" y="-1860" as="targetPoint" />
            <Array as="points">
              <mxPoint x="-690" y="-2020" />
              <mxPoint x="-690" y="-1980" />
            </Array>
          </mxGeometry>
        </mxCell>
        <mxCell id="VUuJxfTxhFCesFp1tUoB-1050" value="" style="edgeStyle=orthogonalEdgeStyle;rounded=0;orthogonalLoop=1;jettySize=auto;html=1;" edge="1" parent="WIyWlLk6GJQsqaUBKTNV-1">
          <mxGeometry relative="1" as="geometry">
            <mxPoint x="-500" y="-1560" as="sourcePoint" />
            <mxPoint x="-470" y="-1560" as="targetPoint" />
            <Array as="points">
              <mxPoint x="-470" y="-1560" />
              <mxPoint x="-470" y="-1560" />
            </Array>
          </mxGeometry>
        </mxCell>
        <mxCell id="VUuJxfTxhFCesFp1tUoB-1051" style="edgeStyle=none;rounded=1;sketch=0;orthogonalLoop=1;jettySize=auto;html=1;" edge="1" parent="WIyWlLk6GJQsqaUBKTNV-1">
          <mxGeometry relative="1" as="geometry">
            <mxPoint x="-671" y="-1860.5" as="targetPoint" />
            <mxPoint x="-691" y="-1860" as="sourcePoint" />
          </mxGeometry>
        </mxCell>
        <mxCell id="VUuJxfTxhFCesFp1tUoB-1052" style="edgeStyle=none;rounded=1;sketch=0;orthogonalLoop=1;jettySize=auto;html=1;" edge="1" parent="WIyWlLk6GJQsqaUBKTNV-1">
          <mxGeometry relative="1" as="geometry">
            <mxPoint x="-671" y="-2110.5" as="targetPoint" />
            <mxPoint x="-691" y="-2110" as="sourcePoint" />
          </mxGeometry>
        </mxCell>
        <mxCell id="VUuJxfTxhFCesFp1tUoB-1053" style="edgeStyle=none;rounded=1;sketch=0;orthogonalLoop=1;jettySize=auto;html=1;" edge="1" parent="WIyWlLk6GJQsqaUBKTNV-1">
          <mxGeometry relative="1" as="geometry">
            <mxPoint x="-671" y="-2060.5" as="targetPoint" />
            <mxPoint x="-691" y="-2060.5" as="sourcePoint" />
          </mxGeometry>
        </mxCell>
        <mxCell id="VUuJxfTxhFCesFp1tUoB-1054" style="edgeStyle=none;rounded=1;sketch=0;orthogonalLoop=1;jettySize=auto;html=1;" edge="1" parent="WIyWlLk6GJQsqaUBKTNV-1">
          <mxGeometry relative="1" as="geometry">
            <mxPoint x="-670" y="-2160.5" as="targetPoint" />
            <mxPoint x="-690" y="-2160" as="sourcePoint" />
            <Array as="points">
              <mxPoint x="-690" y="-2160.5" />
            </Array>
          </mxGeometry>
        </mxCell>
        <mxCell id="VUuJxfTxhFCesFp1tUoB-1055" style="edgeStyle=none;rounded=1;sketch=0;orthogonalLoop=1;jettySize=auto;html=1;entryX=0;entryY=0.5;entryDx=0;entryDy=0;" edge="1" parent="WIyWlLk6GJQsqaUBKTNV-1" target="VUuJxfTxhFCesFp1tUoB-1046">
          <mxGeometry relative="1" as="geometry">
            <mxPoint x="-659" y="-1910.5" as="targetPoint" />
            <mxPoint x="-680" y="-1910" as="sourcePoint" />
            <Array as="points">
              <mxPoint x="-690" y="-1910" />
              <mxPoint x="-680" y="-1910" />
            </Array>
          </mxGeometry>
        </mxCell>
        <mxCell id="VUuJxfTxhFCesFp1tUoB-1056" style="edgeStyle=none;rounded=1;sketch=0;orthogonalLoop=1;jettySize=auto;html=1;" edge="1" parent="WIyWlLk6GJQsqaUBKTNV-1">
          <mxGeometry relative="1" as="geometry">
            <mxPoint x="-671" y="-1960" as="targetPoint" />
            <mxPoint x="-690" y="-1960" as="sourcePoint" />
            <Array as="points">
              <mxPoint x="-671" y="-1959.5" />
            </Array>
          </mxGeometry>
        </mxCell>
        <mxCell id="VUuJxfTxhFCesFp1tUoB-1057" style="edgeStyle=none;rounded=1;sketch=0;orthogonalLoop=1;jettySize=auto;html=1;" edge="1" parent="WIyWlLk6GJQsqaUBKTNV-1">
          <mxGeometry relative="1" as="geometry">
            <mxPoint x="-670" y="-2010" as="targetPoint" />
            <mxPoint x="-690" y="-2010" as="sourcePoint" />
          </mxGeometry>
        </mxCell>
        <mxCell id="VUuJxfTxhFCesFp1tUoB-1058" style="edgeStyle=none;rounded=1;sketch=0;orthogonalLoop=1;jettySize=auto;html=1;entryX=1;entryY=0.75;entryDx=0;entryDy=0;" edge="1" parent="WIyWlLk6GJQsqaUBKTNV-1">
          <mxGeometry relative="1" as="geometry">
            <mxPoint x="-591" y="-2120" as="sourcePoint" />
            <mxPoint x="-591" y="-2120" as="targetPoint" />
          </mxGeometry>
        </mxCell>
        <mxCell id="VUuJxfTxhFCesFp1tUoB-1059" value="To clients&#39; menu" style="rounded=0;whiteSpace=wrap;html=1;sketch=0;" vertex="1" parent="WIyWlLk6GJQsqaUBKTNV-1">
          <mxGeometry x="-480" y="-1985" width="80" height="30" as="geometry" />
        </mxCell>
        <mxCell id="VUuJxfTxhFCesFp1tUoB-1060" value="Exit" style="rounded=0;whiteSpace=wrap;html=1;sketch=0;" vertex="1" parent="WIyWlLk6GJQsqaUBKTNV-1">
          <mxGeometry x="-480" y="-2065" width="80" height="30" as="geometry" />
        </mxCell>
        <mxCell id="VUuJxfTxhFCesFp1tUoB-1061" value="" style="endArrow=none;html=1;rounded=1;sketch=0;curved=0;entryX=1;entryY=0.5;entryDx=0;entryDy=0;exitX=1;exitY=0.75;exitDx=0;exitDy=0;" edge="1" parent="WIyWlLk6GJQsqaUBKTNV-1" source="VUuJxfTxhFCesFp1tUoB-1048">
          <mxGeometry width="50" height="50" relative="1" as="geometry">
            <mxPoint x="-591" y="-1975" as="sourcePoint" />
            <mxPoint x="-591" y="-2155" as="targetPoint" />
            <Array as="points">
              <mxPoint x="-571" y="-1850" />
              <mxPoint x="-571" y="-2055" />
              <mxPoint x="-571" y="-2155" />
            </Array>
          </mxGeometry>
        </mxCell>
        <mxCell id="VUuJxfTxhFCesFp1tUoB-1062" style="edgeStyle=none;rounded=1;sketch=0;orthogonalLoop=1;jettySize=auto;html=1;exitX=1;exitY=0.5;exitDx=0;exitDy=0;" edge="1" parent="WIyWlLk6GJQsqaUBKTNV-1">
          <mxGeometry relative="1" as="geometry">
            <mxPoint x="-571" y="-2125" as="targetPoint" />
            <mxPoint x="-591" y="-2125" as="sourcePoint" />
          </mxGeometry>
        </mxCell>
        <mxCell id="VUuJxfTxhFCesFp1tUoB-1063" style="edgeStyle=none;rounded=1;sketch=0;orthogonalLoop=1;jettySize=auto;html=1;" edge="1" parent="WIyWlLk6GJQsqaUBKTNV-1">
          <mxGeometry relative="1" as="geometry">
            <mxPoint x="-571" y="-2065" as="targetPoint" />
            <mxPoint x="-591" y="-2065" as="sourcePoint" />
            <Array as="points">
              <mxPoint x="-591" y="-2065" />
            </Array>
          </mxGeometry>
        </mxCell>
        <mxCell id="VUuJxfTxhFCesFp1tUoB-1064" style="edgeStyle=none;rounded=1;sketch=0;orthogonalLoop=1;jettySize=auto;html=1;exitX=1;exitY=0.5;exitDx=0;exitDy=0;" edge="1" parent="WIyWlLk6GJQsqaUBKTNV-1" source="VUuJxfTxhFCesFp1tUoB-1046">
          <mxGeometry relative="1" as="geometry">
            <mxPoint x="-570" y="-1910" as="targetPoint" />
            <mxPoint x="-591" y="-2035" as="sourcePoint" />
          </mxGeometry>
        </mxCell>
        <mxCell id="VUuJxfTxhFCesFp1tUoB-1065" style="edgeStyle=none;rounded=1;sketch=0;orthogonalLoop=1;jettySize=auto;html=1;exitX=1;exitY=0.5;exitDx=0;exitDy=0;exitPerimeter=0;" edge="1" parent="WIyWlLk6GJQsqaUBKTNV-1" source="VUuJxfTxhFCesFp1tUoB-1041">
          <mxGeometry relative="1" as="geometry">
            <mxPoint x="-570" y="-2010" as="targetPoint" />
            <mxPoint x="-591" y="-2005" as="sourcePoint" />
            <Array as="points">
              <mxPoint x="-580" y="-2010" />
              <mxPoint x="-570" y="-2010" />
            </Array>
          </mxGeometry>
        </mxCell>
        <mxCell id="VUuJxfTxhFCesFp1tUoB-1066" value="" style="endArrow=none;html=1;rounded=1;sketch=0;" edge="1" parent="WIyWlLk6GJQsqaUBKTNV-1">
          <mxGeometry width="50" height="50" relative="1" as="geometry">
            <mxPoint x="-509" y="-1965" as="sourcePoint" />
            <mxPoint x="-509" y="-2050" as="targetPoint" />
          </mxGeometry>
        </mxCell>
        <mxCell id="VUuJxfTxhFCesFp1tUoB-1067" value="" style="edgeStyle=orthogonalEdgeStyle;rounded=0;orthogonalLoop=1;jettySize=auto;html=1;" edge="1" parent="WIyWlLk6GJQsqaUBKTNV-1">
          <mxGeometry relative="1" as="geometry">
            <mxPoint x="-499" y="-2050" as="sourcePoint" />
            <mxPoint x="-479" y="-2050" as="targetPoint" />
            <Array as="points">
              <mxPoint x="-509" y="-2050" />
              <mxPoint x="-509" y="-2050" />
            </Array>
          </mxGeometry>
        </mxCell>
        <mxCell id="VUuJxfTxhFCesFp1tUoB-1068" value="" style="edgeStyle=orthogonalEdgeStyle;rounded=0;orthogonalLoop=1;jettySize=auto;html=1;" edge="1" parent="WIyWlLk6GJQsqaUBKTNV-1">
          <mxGeometry relative="1" as="geometry">
            <mxPoint x="-510" y="-1965" as="sourcePoint" />
            <mxPoint x="-480" y="-1965" as="targetPoint" />
            <Array as="points">
              <mxPoint x="-480" y="-1965" />
              <mxPoint x="-480" y="-1965" />
            </Array>
          </mxGeometry>
        </mxCell>
        <mxCell id="VUuJxfTxhFCesFp1tUoB-1069" style="edgeStyle=none;rounded=1;sketch=0;orthogonalLoop=1;jettySize=auto;html=1;" edge="1" parent="WIyWlLk6GJQsqaUBKTNV-1">
          <mxGeometry relative="1" as="geometry">
            <mxPoint x="-570" y="-1960" as="targetPoint" />
            <mxPoint x="-590" y="-1960" as="sourcePoint" />
          </mxGeometry>
        </mxCell>
        <mxCell id="VUuJxfTxhFCesFp1tUoB-1070" style="edgeStyle=none;rounded=1;sketch=0;orthogonalLoop=1;jettySize=auto;html=1;" edge="1" parent="WIyWlLk6GJQsqaUBKTNV-1">
          <mxGeometry relative="1" as="geometry">
            <mxPoint x="-510" y="-2010" as="targetPoint" />
            <mxPoint x="-570" y="-2010" as="sourcePoint" />
            <Array as="points" />
          </mxGeometry>
        </mxCell>
      </root>
    </mxGraphModel>
  </diagram>
</mxfile>
